<svg xmlns="http://www.w3.org/2000/svg" xmlns:xlink="http://www.w3.org/1999/xlink" width="80" zoomAndPan="magnify" viewBox="0 0 60 60" height="80" preserveAspectRatio="xMidYMid meet" version="1.0"><defs><g/><clipPath id="bfdbf60095"><path d="M 1.167969 11.113281 L 58.917969 11.113281 L 58.917969 48.613281 L 1.167969 48.613281 Z M 1.167969 11.113281 " clip-rule="nonzero"/></clipPath></defs><g clip-path="url(#bfdbf60095)"><path fill="#c4d8ff" d="M 11.109375 39.9375 L 14.09375 39.9375 C 14.09375 39.9375 14.09375 42.921875 14.09375 42.921875 C 14.09375 43.46875 14.539062 43.914062 15.085938 43.914062 L 27.015625 43.914062 C 27.5625 43.914062 28.007812 43.46875 28.007812 42.921875 L 28.007812 39.9375 C 28.007812 39.9375 29.996094 39.9375 29.996094 39.9375 C 29.996094 39.9375 29.996094 42.921875 29.996094 42.921875 C 29.996094 43.46875 30.441406 43.914062 30.988281 43.914062 L 54.84375 43.914062 C 55.394531 43.914062 55.839844 43.46875 55.839844 42.921875 L 55.839844 39.9375 C 55.839844 39.9375 57.824219 39.9375 57.824219 39.9375 C 58.375 39.9375 58.820312 39.492188 58.820312 38.945312 L 58.820312 17.078125 C 58.820312 16.53125 58.375 16.085938 57.824219 16.085938 L 11.109375 16.085938 L 11.109375 14.097656 C 11.109375 12.449219 9.777344 11.113281 8.128906 11.113281 L 2.164062 11.113281 C 1.617188 11.113281 1.171875 11.558594 1.171875 12.109375 L 1.171875 16.085938 C 1.171875 16.632812 1.617188 17.078125 2.164062 17.078125 L 5.148438 17.078125 C 5.148438 17.078125 5.148438 47.890625 5.148438 47.890625 C 5.148438 48.4375 5.59375 48.882812 6.140625 48.882812 L 10.117188 48.882812 C 10.664062 48.882812 11.109375 48.4375 11.109375 47.890625 Z M 9.125 46.894531 L 7.136719 46.894531 C 7.136719 46.894531 7.136719 16.085938 7.136719 16.085938 C 7.136719 15.535156 6.691406 15.089844 6.140625 15.089844 L 3.160156 15.089844 C 3.160156 15.089844 3.160156 13.101562 3.160156 13.101562 C 3.160156 13.101562 8.128906 13.101562 8.128906 13.101562 C 8.679688 13.101562 9.125 13.546875 9.125 14.097656 Z M 51.863281 41.925781 L 53.851562 41.925781 L 53.851562 38.945312 C 53.851562 38.394531 54.296875 37.949219 54.84375 37.949219 C 54.84375 37.949219 56.832031 37.949219 56.832031 37.949219 C 56.832031 37.949219 56.832031 18.074219 56.832031 18.074219 L 11.109375 18.074219 L 11.109375 37.949219 L 15.085938 37.949219 C 15.636719 37.949219 16.082031 38.394531 16.082031 38.945312 C 16.082031 38.945312 16.082031 41.925781 16.082031 41.925781 L 18.070312 41.925781 L 18.070312 38.945312 C 18.070312 38.394531 18.515625 37.949219 19.0625 37.949219 C 19.609375 37.949219 20.054688 38.394531 20.054688 38.945312 L 20.054688 41.925781 L 22.042969 41.925781 L 22.042969 38.945312 C 22.042969 38.394531 22.488281 37.949219 23.039062 37.949219 C 23.585938 37.949219 24.03125 38.394531 24.03125 38.945312 L 24.03125 41.925781 L 26.019531 41.925781 L 26.019531 38.945312 C 26.019531 38.394531 26.464844 37.949219 27.015625 37.949219 L 30.988281 37.949219 C 31.539062 37.949219 31.984375 38.394531 31.984375 38.945312 C 31.984375 38.945312 31.984375 41.925781 31.984375 41.925781 L 33.972656 41.925781 L 33.972656 38.945312 C 33.972656 38.394531 34.417969 37.949219 34.964844 37.949219 C 35.515625 37.949219 35.960938 38.394531 35.960938 38.945312 L 35.960938 41.925781 L 37.945312 41.925781 L 37.945312 38.945312 C 37.945312 38.394531 38.390625 37.949219 38.941406 37.949219 C 39.488281 37.949219 39.933594 38.394531 39.933594 38.945312 L 39.933594 41.925781 L 41.921875 41.925781 L 41.921875 38.945312 C 41.921875 38.394531 42.367188 37.949219 42.917969 37.949219 C 43.464844 37.949219 43.910156 38.394531 43.910156 38.945312 L 43.910156 41.925781 L 45.898438 41.925781 L 45.898438 38.945312 C 45.898438 38.394531 46.34375 37.949219 46.894531 37.949219 C 47.441406 37.949219 47.886719 38.394531 47.886719 38.945312 L 47.886719 41.925781 L 49.875 41.925781 L 49.875 38.945312 C 49.875 38.394531 50.320312 37.949219 50.867188 37.949219 C 51.417969 37.949219 51.863281 38.394531 51.863281 38.945312 Z M 51.863281 41.925781 " fill-opacity="1" fill-rule="evenodd"/></g><path fill="#c4d8ff" d="M 46.894531 20.058594 C 42.503906 20.058594 38.941406 23.625 38.941406 28.011719 C 38.941406 32.398438 42.503906 35.964844 46.894531 35.964844 C 51.28125 35.964844 54.84375 32.398438 54.84375 28.011719 C 54.84375 23.625 51.28125 20.058594 46.894531 20.058594 Z M 47.617188 30.90625 C 47.554688 30.917969 47.492188 30.933594 47.429688 30.945312 C 47.105469 31.421875 46.917969 31.890625 46.914062 32.386719 C 46.90625 32.886719 47.078125 33.398438 47.414062 33.953125 C 48.222656 33.882812 48.988281 33.648438 49.675781 33.285156 C 49.246094 33.0625 48.878906 32.789062 48.574219 32.476562 C 48.152344 32.042969 47.832031 31.519531 47.617188 30.90625 Z M 45.199219 30.464844 C 44.632812 30.574219 44.167969 30.773438 43.8125 31.117188 C 43.457031 31.46875 43.21875 31.949219 43.058594 32.578125 C 43.660156 33.082031 44.363281 33.472656 45.128906 33.710938 C 44.984375 33.246094 44.917969 32.796875 44.925781 32.359375 C 44.933594 31.75 45.078125 31.160156 45.359375 30.570312 C 45.304688 30.535156 45.25 30.5 45.199219 30.464844 Z M 49.449219 29.546875 C 49.417969 29.601562 49.382812 29.652344 49.347656 29.707031 C 49.453125 30.273438 49.652344 30.734375 50 31.089844 C 50.347656 31.449219 50.832031 31.6875 51.460938 31.84375 C 51.964844 31.242188 52.351562 30.542969 52.589844 29.773438 C 52.125 29.921875 51.675781 29.984375 51.238281 29.980469 C 50.632812 29.96875 50.039062 29.828125 49.449219 29.546875 Z M 43.960938 28.546875 C 43.480469 28.226562 43.015625 28.039062 42.519531 28.03125 C 42.019531 28.023438 41.507812 28.199219 40.953125 28.53125 C 41.019531 29.34375 41.253906 30.109375 41.617188 30.792969 C 41.84375 30.363281 42.113281 30 42.429688 29.695312 C 42.863281 29.269531 43.382812 28.953125 44 28.734375 C 43.984375 28.671875 43.96875 28.609375 43.960938 28.546875 Z M 46.894531 27.019531 C 47.441406 27.019531 47.886719 27.464844 47.886719 28.011719 C 47.886719 28.558594 47.441406 29.003906 46.894531 29.003906 C 46.34375 29.003906 45.898438 28.558594 45.898438 28.011719 C 45.898438 27.464844 46.34375 27.019531 46.894531 27.019531 Z M 52.167969 25.230469 C 51.941406 25.660156 51.671875 26.023438 51.355469 26.328125 C 50.921875 26.753906 50.402344 27.070312 49.785156 27.289062 C 49.800781 27.351562 49.816406 27.414062 49.824219 27.476562 C 50.304688 27.796875 50.769531 27.984375 51.265625 27.992188 C 51.765625 28 52.277344 27.824219 52.832031 27.492188 C 52.765625 26.679688 52.53125 25.914062 52.167969 25.230469 Z M 42.324219 24.179688 C 41.820312 24.78125 41.433594 25.480469 41.195312 26.25 C 41.660156 26.101562 42.109375 26.039062 42.546875 26.042969 C 43.152344 26.050781 43.746094 26.195312 44.335938 26.476562 C 44.367188 26.421875 44.402344 26.371094 44.4375 26.316406 C 44.332031 25.75 44.132812 25.289062 43.785156 24.933594 C 43.4375 24.574219 42.953125 24.335938 42.324219 24.179688 Z M 48.65625 22.3125 C 48.800781 22.777344 48.867188 23.226562 48.859375 23.664062 C 48.851562 24.269531 48.707031 24.863281 48.425781 25.453125 C 48.480469 25.488281 48.535156 25.523438 48.585938 25.558594 C 49.152344 25.449219 49.617188 25.25 49.972656 24.90625 C 50.328125 24.554688 50.566406 24.074219 50.726562 23.445312 C 50.125 22.941406 49.421875 22.550781 48.65625 22.3125 Z M 46.371094 22.070312 C 45.5625 22.140625 44.796875 22.375 44.109375 22.738281 C 44.539062 22.960938 44.90625 23.234375 45.210938 23.546875 C 45.632812 23.980469 45.953125 24.503906 46.167969 25.117188 C 46.230469 25.101562 46.292969 25.089844 46.355469 25.078125 C 46.679688 24.601562 46.867188 24.132812 46.871094 23.636719 C 46.878906 23.136719 46.707031 22.625 46.371094 22.070312 Z M 46.371094 22.070312 " fill-opacity="1" fill-rule="evenodd"/><path fill="#c4d8ff" d="M 26.019531 23.042969 L 24.03125 23.042969 L 24.03125 21.054688 C 24.03125 20.503906 23.585938 20.058594 23.039062 20.058594 C 22.488281 20.058594 22.042969 20.503906 22.042969 21.054688 L 22.042969 23.042969 L 21.050781 23.042969 C 20.5 23.042969 20.054688 23.488281 20.054688 24.035156 L 20.054688 25.03125 L 18.070312 25.03125 C 17.519531 25.03125 17.074219 25.476562 17.074219 26.023438 C 17.074219 26.574219 17.519531 27.019531 18.070312 27.019531 L 20.054688 27.019531 L 20.054688 29.003906 L 18.070312 29.003906 C 17.519531 29.003906 17.074219 29.449219 17.074219 30 C 17.074219 30.546875 17.519531 30.992188 18.070312 30.992188 L 20.054688 30.992188 L 20.054688 31.988281 C 20.054688 32.535156 20.5 32.980469 21.050781 32.980469 L 22.042969 32.980469 L 22.042969 34.96875 C 22.042969 35.519531 22.488281 35.964844 23.039062 35.964844 C 23.585938 35.964844 24.03125 35.519531 24.03125 34.96875 L 24.03125 32.980469 L 26.019531 32.980469 L 26.019531 34.96875 C 26.019531 35.519531 26.464844 35.964844 27.015625 35.964844 C 27.5625 35.964844 28.007812 35.519531 28.007812 34.96875 L 28.007812 32.980469 L 29 32.980469 C 29.550781 32.980469 29.996094 32.535156 29.996094 31.988281 L 29.996094 30.992188 L 31.984375 30.992188 C 32.53125 30.992188 32.976562 30.546875 32.976562 30 C 32.976562 29.449219 32.53125 29.003906 31.984375 29.003906 L 29.996094 29.003906 L 29.996094 27.019531 L 31.984375 27.019531 C 32.53125 27.019531 32.976562 26.574219 32.976562 26.023438 C 32.976562 25.476562 32.53125 25.03125 31.984375 25.03125 L 29.996094 25.03125 L 29.996094 24.035156 C 29.996094 23.488281 29.550781 23.042969 29 23.042969 L 28.007812 23.042969 L 28.007812 21.054688 C 28.007812 20.503906 27.5625 20.058594 27.015625 20.058594 C 26.464844 20.058594 26.019531 20.503906 26.019531 21.054688 Z M 28.007812 25.03125 L 28.007812 30.992188 C 28.007812 30.992188 22.042969 30.992188 22.042969 30.992188 C 22.042969 30.992188 22.042969 25.03125 22.042969 25.03125 Z M 28.007812 25.03125 " fill-opacity="1" fill-rule="evenodd"/><g fill="#c4d8ff" fill-opacity="1"><g transform="translate(29.468749, 31.374998)"><g><path d="M 0.53125 0.046875 C 0.414062 0.046875 0.328125 0.015625 0.265625 -0.046875 C 0.210938 -0.117188 0.1875 -0.203125 0.1875 -0.296875 C 0.1875 -0.398438 0.210938 -0.484375 0.265625 -0.546875 C 0.328125 -0.617188 0.410156 -0.65625 0.515625 -0.65625 C 0.628906 -0.65625 0.71875 -0.625 0.78125 -0.5625 C 0.84375 -0.507812 0.875 -0.425781 0.875 -0.3125 C 0.875 -0.207031 0.84375 -0.117188 0.78125 -0.046875 C 0.726562 0.015625 0.644531 0.046875 0.53125 0.046875 Z M 0.53125 0.046875 "/></g></g></g></svg>