<svg xmlns="http://www.w3.org/2000/svg" xmlns:xlink="http://www.w3.org/1999/xlink" width="80" zoomAndPan="magnify" viewBox="0 0 60 60" height="80" preserveAspectRatio="xMidYMid meet" version="1.0"><defs><g/><clipPath id="3b17f405e5"><path d="M 13.628906 6.558594 L 48.878906 6.558594 L 48.878906 53.808594 L 13.628906 53.808594 Z M 13.628906 6.558594 " clip-rule="nonzero"/></clipPath></defs><path fill="#c4d8ff" d="M 31.570312 17.246094 C 34.507812 17.246094 36.894531 19.636719 36.894531 22.574219 L 36.894531 24.828125 L 38.492188 24.828125 L 38.492188 22.574219 C 38.492188 18.757812 35.386719 15.652344 31.570312 15.652344 C 27.753906 15.652344 24.648438 18.757812 24.648438 22.574219 L 24.648438 24.828125 L 26.242188 24.828125 L 26.242188 22.574219 C 26.242188 19.636719 28.632812 17.246094 31.570312 17.246094 " fill-opacity="1" fill-rule="nonzero"/><path fill="#c4d8ff" d="M 26.71875 25.785156 L 24.59375 25.785156 C 23.914062 25.785156 23.359375 26.339844 23.359375 27.019531 L 23.359375 36.390625 C 23.359375 37.074219 23.914062 37.628906 24.59375 37.628906 L 38.542969 37.628906 C 39.226562 37.628906 39.78125 37.074219 39.78125 36.390625 L 39.78125 27.019531 C 39.78125 26.339844 39.226562 25.785156 38.542969 25.785156 Z M 33.597656 35.308594 C 33.613281 35.445312 33.574219 35.582031 33.484375 35.6875 C 33.390625 35.792969 33.261719 35.851562 33.121094 35.851562 L 30.015625 35.851562 C 29.875 35.851562 29.746094 35.792969 29.65625 35.6875 C 29.5625 35.582031 29.523438 35.445312 29.542969 35.308594 L 29.988281 32.085938 C 29.382812 31.609375 29.027344 30.886719 29.027344 30.101562 C 29.027344 28.699219 30.167969 27.558594 31.570312 27.558594 C 32.96875 27.558594 34.109375 28.699219 34.109375 30.101562 C 34.109375 30.886719 33.757812 31.609375 33.148438 32.085938 L 33.597656 35.308594 " fill-opacity="1" fill-rule="nonzero"/><g clip-path="url(#3b17f405e5)"><path fill="#c4d8ff" d="M 48 12.304688 C 44.1875 11.828125 34.984375 10.339844 31.820312 6.851562 C 31.652344 6.660156 31.421875 6.558594 31.175781 6.558594 C 30.933594 6.558594 30.703125 6.660156 30.535156 6.851562 C 27.371094 10.339844 18.167969 11.828125 14.355469 12.304688 C 13.945312 12.355469 13.632812 12.710938 13.632812 13.128906 L 13.632812 20.664062 C 13.632812 38.648438 26.671875 50.113281 30.667969 53.199219 C 30.96875 53.429688 31.386719 53.433594 31.6875 53.199219 C 35.683594 50.113281 48.71875 38.648438 48.71875 20.664062 L 48.71875 13.128906 C 48.71875 12.710938 48.410156 12.355469 48 12.304688 Z M 47.261719 21.910156 C 47.261719 37.894531 35.703125 48.058594 32.164062 50.792969 C 31.871094 51.015625 31.523438 51.128906 31.175781 51.128906 C 30.828125 51.128906 30.480469 51.015625 30.191406 50.792969 C 26.648438 48.058594 15.09375 37.894531 15.09375 21.910156 L 15.09375 15.382812 C 15.09375 14.574219 15.699219 13.886719 16.5 13.789062 C 18.996094 13.472656 27.351562 12.230469 29.960938 9.347656 C 30.273438 9 30.71875 8.800781 31.175781 8.800781 C 31.636719 8.800781 32.082031 9 32.394531 9.347656 C 35.003906 12.230469 43.359375 13.472656 45.855469 13.789062 C 46.65625 13.886719 47.261719 14.574219 47.261719 15.382812 L 47.261719 21.910156 " fill-opacity="1" fill-rule="nonzero"/></g><g fill="#000000" fill-opacity="1"><g transform="translate(23.769725, 35.475001)"><g><path d="M 0.53125 0.046875 C 0.414062 0.046875 0.328125 0.015625 0.265625 -0.046875 C 0.210938 -0.117188 0.1875 -0.203125 0.1875 -0.296875 C 0.1875 -0.398438 0.210938 -0.484375 0.265625 -0.546875 C 0.328125 -0.617188 0.410156 -0.65625 0.515625 -0.65625 C 0.628906 -0.65625 0.71875 -0.625 0.78125 -0.5625 C 0.84375 -0.507812 0.875 -0.425781 0.875 -0.3125 C 0.875 -0.207031 0.84375 -0.117188 0.78125 -0.046875 C 0.726562 0.015625 0.644531 0.046875 0.53125 0.046875 Z M 0.53125 0.046875 "/></g></g></g></svg>