<svg xmlns="http://www.w3.org/2000/svg" xmlns:xlink="http://www.w3.org/1999/xlink" width="80" zoomAndPan="magnify" viewBox="0 0 60 60" height="80" preserveAspectRatio="xMidYMid meet" version="1.0"><defs><g/><clipPath id="a06f5c1615"><path d="M 5.894531 38 L 46 38 L 46 54.863281 L 5.894531 54.863281 Z M 5.894531 38 " clip-rule="nonzero"/></clipPath><clipPath id="364bc382c6"><path d="M 9 5.363281 L 55.394531 5.363281 L 55.394531 36 L 9 36 Z M 9 5.363281 " clip-rule="nonzero"/></clipPath></defs><g clip-path="url(#a06f5c1615)"><path fill="#c4d8ff" d="M 42.929688 41.914062 C 42.753906 41.914062 42.582031 41.933594 42.410156 41.964844 C 42.429688 41.777344 42.445312 41.585938 42.445312 41.398438 C 42.445312 39.929688 41.25 38.734375 39.785156 38.734375 C 39.300781 38.734375 38.828125 38.867188 38.414062 39.113281 L 32.554688 42.628906 L 22.199219 41.941406 C 21.941406 41.921875 21.679688 41.914062 21.425781 41.914062 C 19.320312 41.914062 17.230469 42.503906 15.429688 43.582031 L 15.429688 41.914062 L 5.894531 41.914062 L 5.894531 54.628906 L 15.429688 54.628906 L 15.429688 53.417969 L 17.175781 54.117188 C 18.023438 54.457031 18.917969 54.628906 19.832031 54.628906 L 27.984375 54.628906 C 31.878906 54.628906 35.667969 53.515625 38.941406 51.410156 L 43.515625 48.472656 C 44.835938 47.621094 45.625 46.179688 45.625 44.609375 C 45.625 43.121094 44.414062 41.914062 42.929688 41.914062 Z M 39.230469 40.476562 C 39.398438 40.378906 39.589844 40.324219 39.785156 40.324219 C 40.375 40.324219 40.855469 40.804688 40.855469 41.398438 C 40.855469 41.90625 40.734375 42.40625 40.507812 42.859375 L 36.8125 44.875 C 35.941406 45.351562 35.027344 45.734375 34.085938 46.023438 C 34.347656 45.488281 34.5 44.882812 34.5 44.246094 C 34.5 43.957031 34.417969 43.683594 34.28125 43.449219 Z M 13.839844 53.039062 L 7.480469 53.039062 L 7.480469 43.503906 L 13.839844 43.503906 Z M 42.65625 47.136719 L 38.082031 50.074219 C 35.066406 52.011719 31.574219 53.039062 27.984375 53.039062 L 19.832031 53.039062 C 19.121094 53.039062 18.425781 52.90625 17.765625 52.640625 L 15.429688 51.707031 L 15.429688 45.492188 C 17.148438 44.210938 19.277344 43.503906 21.425781 43.503906 C 21.644531 43.503906 21.871094 43.511719 22.09375 43.527344 L 32.910156 44.246094 C 32.910156 45.414062 32.085938 46.390625 30.992188 46.625 C 30.570312 46.664062 30.152344 46.683594 29.730469 46.683594 L 25.621094 46.683594 C 23.960938 46.683594 22.398438 47.328125 21.222656 48.503906 L 22.347656 49.628906 C 23.222656 48.753906 24.382812 48.269531 25.621094 48.269531 L 30.472656 48.269531 C 30.722656 48.269531 30.96875 48.246094 31.207031 48.203125 C 33.429688 48 35.605469 47.34375 37.574219 46.273438 L 42.398438 43.636719 C 42.5625 43.550781 42.746094 43.503906 42.929688 43.503906 C 43.539062 43.503906 44.035156 44 44.035156 44.609375 C 44.035156 45.636719 43.519531 46.578125 42.65625 47.136719 Z M 42.65625 47.136719 " fill-opacity="1" fill-rule="nonzero"/></g><g clip-path="url(#364bc382c6)"><path fill="#c4d8ff" d="M 46.570312 13.308594 L 45.28125 12.792969 C 43.5 12.082031 41.625 11.71875 39.710938 11.71875 C 37.207031 11.71875 34.722656 12.351562 32.527344 13.550781 L 29.175781 15.378906 L 25.238281 6.03125 C 25.066406 5.625 24.671875 5.363281 24.230469 5.363281 C 24.082031 5.363281 23.933594 5.394531 23.796875 5.453125 L 14.316406 9.546875 C 13.667969 9.828125 13.363281 10.585938 13.636719 11.238281 L 13.664062 11.300781 L 10.90625 13.675781 C 10.324219 14.175781 10.257812 15.054688 10.757812 15.636719 L 11.148438 16.09375 L 9.480469 18.941406 C 9.09375 19.601562 9.316406 20.457031 9.980469 20.84375 L 20.199219 26.832031 L 23.617188 34.949219 C 23.871094 35.554688 24.464844 35.921875 25.085938 35.921875 C 25.289062 35.921875 25.496094 35.882812 25.699219 35.796875 L 34.488281 32.097656 C 34.878906 31.933594 35.183594 31.625 35.34375 31.234375 C 35.503906 30.839844 35.5 30.410156 35.335938 30.015625 L 34.324219 27.613281 L 41.21875 27.613281 C 42.132812 27.613281 43.027344 27.441406 43.875 27.101562 L 46.570312 26.023438 L 55.160156 26.023438 L 55.160156 13.308594 Z M 23.753906 20.476562 C 24.742188 21.957031 26.398438 22.84375 28.179688 22.84375 L 28.433594 22.84375 C 28.570312 22.84375 28.703125 22.839844 28.839844 22.828125 C 28.34375 23.867188 27.484375 24.699219 26.394531 25.160156 C 23.972656 26.179688 21.171875 25.039062 20.148438 22.617188 L 20.148438 22.613281 C 19.128906 20.191406 20.273438 17.390625 22.695312 16.371094 C 24.007812 15.816406 25.480469 15.894531 26.714844 16.523438 C 26.183594 16.71875 25.640625 16.890625 25.085938 17.027344 C 24.078125 17.28125 23.375 18.183594 23.375 19.222656 C 23.375 19.667969 23.503906 20.101562 23.753906 20.476562 Z M 30.496094 29.257812 C 30.117188 30.1875 30.042969 31.191406 30.269531 32.148438 L 28.683594 32.816406 C 28.15625 31.984375 27.386719 31.335938 26.457031 30.957031 C 25.527344 30.578125 24.523438 30.503906 23.566406 30.734375 L 21.777344 26.484375 C 22.636719 26.898438 23.585938 27.121094 24.550781 27.121094 C 25.371094 27.121094 26.207031 26.960938 27.007812 26.625 C 28.710938 25.910156 29.992188 24.511719 30.566406 22.789062 L 32.355469 27.035156 C 31.523438 27.558594 30.875 28.328125 30.496094 29.257812 Z M 18.589844 12.273438 C 18.976562 11.328125 19.046875 10.308594 18.808594 9.339844 L 20.371094 8.660156 C 20.898438 9.519531 21.679688 10.183594 22.628906 10.570312 C 23.210938 10.808594 23.820312 10.925781 24.429688 10.925781 C 24.796875 10.925781 25.160156 10.882812 25.519531 10.796875 L 27.308594 15.042969 C 25.691406 14.261719 23.785156 14.1875 22.078125 14.90625 C 20.328125 15.640625 19.082031 17.074219 18.519531 18.746094 L 16.734375 14.496094 C 17.566406 13.972656 18.210938 13.203125 18.589844 12.273438 Z M 18.007812 21.625 L 14.640625 17.710938 C 15.089844 17.171875 15.410156 16.546875 15.585938 15.867188 Z M 23.96875 7.109375 L 24.890625 9.300781 C 23.726562 9.472656 22.550781 8.976562 21.855469 8.019531 Z M 17.316406 9.980469 C 17.496094 11.132812 17.027344 12.296875 16.101562 13 L 15.214844 10.890625 Z M 13.824219 13.261719 C 14.332031 14.292969 14.238281 15.535156 13.582031 16.480469 L 12.09375 14.75 Z M 12.246094 17.367188 L 17.390625 23.34375 L 10.953125 19.574219 Z M 25.082031 34.332031 L 24.195312 32.226562 C 25.335938 32.0625 26.488281 32.53125 27.1875 33.445312 Z M 31.765625 31.519531 C 31.597656 30.378906 32.066406 29.226562 32.984375 28.527344 L 33.871094 30.632812 Z M 43.285156 25.625 C 42.625 25.886719 41.929688 26.023438 41.21875 26.023438 L 33.652344 26.023438 L 31.824219 21.679688 L 36.132812 18.984375 L 36.347656 19.09375 C 38.183594 20.011719 40.382812 19.875 42.089844 18.738281 L 41.210938 17.414062 C 39.976562 18.238281 38.386719 18.335938 37.058594 17.671875 L 36.042969 17.167969 L 30.410156 20.6875 C 29.816406 21.058594 29.132812 21.253906 28.433594 21.253906 L 28.179688 21.253906 C 26.929688 21.253906 25.769531 20.632812 25.078125 19.59375 C 25.003906 19.484375 24.964844 19.355469 24.964844 19.222656 C 24.964844 18.914062 25.171875 18.644531 25.472656 18.570312 C 26.910156 18.210938 28.296875 17.667969 29.597656 16.957031 L 33.289062 14.945312 C 35.253906 13.875 37.472656 13.308594 39.710938 13.308594 C 41.421875 13.308594 43.097656 13.632812 44.6875 14.265625 L 45.625 14.640625 L 45.625 24.691406 Z M 53.570312 24.433594 L 47.210938 24.433594 L 47.210938 14.898438 L 53.570312 14.898438 Z M 53.570312 24.433594 " fill-opacity="1" fill-rule="nonzero"/></g><path fill="#c4d8ff" d="M 45.0625 31.023438 L 46.183594 32.144531 L 48.003906 30.328125 C 47.941406 33.746094 46.894531 37.03125 44.96875 39.847656 L 46.28125 40.746094 C 48.386719 37.660156 49.53125 34.0625 49.59375 30.320312 L 51.417969 32.144531 L 52.542969 31.023438 L 48.800781 27.28125 Z M 45.0625 31.023438 " fill-opacity="1" fill-rule="nonzero"/><path fill="#c4d8ff" d="M 9.570312 37.089844 L 14.433594 39.035156 L 16.890625 35.191406 L 15.554688 34.335938 L 14.246094 36.378906 C 13.449219 34.351562 13.042969 32.210938 13.042969 29.996094 C 13.042969 28.171875 13.324219 26.375 13.875 24.65625 L 12.359375 24.171875 C 11.757812 26.046875 11.453125 28.007812 11.453125 29.996094 C 11.453125 32.28125 11.851562 34.496094 12.632812 36.601562 L 10.160156 35.613281 Z M 9.570312 37.089844 " fill-opacity="1" fill-rule="nonzero"/><g fill="#c4d8ff" fill-opacity="1"><g transform="translate(29.469725, 31.125001)"><g><path d="M 0.53125 0.046875 C 0.414062 0.046875 0.328125 0.015625 0.265625 -0.046875 C 0.210938 -0.117188 0.1875 -0.203125 0.1875 -0.296875 C 0.1875 -0.398438 0.210938 -0.484375 0.265625 -0.546875 C 0.328125 -0.617188 0.410156 -0.65625 0.515625 -0.65625 C 0.628906 -0.65625 0.71875 -0.625 0.78125 -0.5625 C 0.84375 -0.507812 0.875 -0.425781 0.875 -0.3125 C 0.875 -0.207031 0.84375 -0.117188 0.78125 -0.046875 C 0.726562 0.015625 0.644531 0.046875 0.53125 0.046875 Z M 0.53125 0.046875 "/></g></g></g></svg>