<svg xmlns="http://www.w3.org/2000/svg" xmlns:xlink="http://www.w3.org/1999/xlink" width="70" zoomAndPan="magnify" viewBox="0 0 52.5 52.499999" height="70" preserveAspectRatio="xMidYMid meet" version="1.0"><defs><clipPath id="db2c1bc114"><path d="M 7.253906 23.039062 L 46.628906 23.039062 L 46.628906 44.546875 L 7.253906 44.546875 Z M 7.253906 23.039062 " clip-rule="nonzero"/></clipPath><clipPath id="9296afbff6"><path d="M 25 7 L 52 7 L 52 25 L 25 25 Z M 25 7 " clip-rule="nonzero"/></clipPath><clipPath id="e8894a295c"><path d="M 29.84375 2.527344 L 53.382812 11.695312 L 46.101562 30.386719 L 22.5625 21.21875 Z M 29.84375 2.527344 " clip-rule="nonzero"/></clipPath><clipPath id="2d8908eb04"><path d="M 29.84375 2.527344 L 53.382812 11.695312 L 46.101562 30.386719 L 22.5625 21.21875 Z M 29.84375 2.527344 " clip-rule="nonzero"/></clipPath><clipPath id="e960493fc2"><path d="M 0 8 L 26 8 L 26 31 L 0 31 Z M 0 8 " clip-rule="nonzero"/></clipPath><clipPath id="0ba0ad767c"><path d="M -4.226562 11.246094 L 24.484375 7.34375 L 27.285156 27.957031 L -1.425781 31.855469 Z M -4.226562 11.246094 " clip-rule="nonzero"/></clipPath><clipPath id="8b2ea1c168"><path d="M -4.226562 11.246094 L 24.484375 7.34375 L 27.285156 27.957031 L -1.425781 31.855469 Z M -4.226562 11.246094 " clip-rule="nonzero"/></clipPath><clipPath id="283f1ffaf5"><path d="M 9.347656 23.148438 L 23 23.148438 L 23 32 L 9.347656 32 Z M 9.347656 23.148438 " clip-rule="nonzero"/></clipPath><clipPath id="a1cbaf97c6"><path d="M 29 25 L 45.007812 25 L 45.007812 31 L 29 31 Z M 29 25 " clip-rule="nonzero"/></clipPath><clipPath id="b9aec5d0e3"><path d="M 9.347656 27 L 45.007812 27 L 45.007812 35 L 9.347656 35 Z M 9.347656 27 " clip-rule="nonzero"/></clipPath><clipPath id="876bcfc500"><path d="M 41 28 L 45.007812 28 L 45.007812 33 L 41 33 Z M 41 28 " clip-rule="nonzero"/></clipPath><clipPath id="d004f5ecfc"><path d="M 9.347656 29 L 36 29 L 36 37 L 9.347656 37 Z M 9.347656 29 " clip-rule="nonzero"/></clipPath></defs><g clip-path="url(#db2c1bc114)"><path fill="#c4d8ff" d="M 31.382812 39.007812 L 31.382812 41.761719 L 37.464844 41.761719 C 37.882812 41.761719 38.226562 42.105469 38.226562 42.527344 L 38.226562 43.957031 C 38.226562 44.378906 37.882812 44.722656 37.464844 44.722656 L 17.113281 44.722656 C 16.691406 44.722656 16.347656 44.378906 16.347656 43.957031 L 16.347656 42.527344 C 16.347656 42.105469 16.691406 41.761719 17.113281 41.761719 L 23.195312 41.761719 L 23.195312 39.007812 L 9.738281 39.007812 C 9.078125 39.007812 8.449219 38.746094 7.980469 38.277344 C 7.515625 37.8125 7.253906 37.183594 7.253906 36.523438 L 7.253906 16.609375 C 7.253906 15.945312 7.515625 15.316406 7.980469 14.851562 C 8.449219 14.382812 9.078125 14.121094 9.738281 14.121094 L 44.964844 14.121094 C 45.625 14.121094 46.253906 14.382812 46.71875 14.851562 C 47.1875 15.316406 47.449219 15.945312 47.449219 16.609375 L 47.449219 36.523438 C 47.449219 37.183594 47.1875 37.8125 46.71875 38.277344 C 46.253906 38.746094 45.625 39.007812 44.964844 39.007812 Z M 44.964844 16.355469 L 9.738281 16.355469 C 9.671875 16.355469 9.609375 16.382812 9.5625 16.429688 C 9.515625 16.476562 9.488281 16.539062 9.488281 16.609375 L 9.488281 36.523438 C 9.488281 36.589844 9.515625 36.652344 9.5625 36.699219 C 9.609375 36.746094 9.671875 36.773438 9.738281 36.773438 L 44.964844 36.773438 C 45.03125 36.773438 45.09375 36.746094 45.140625 36.699219 C 45.1875 36.652344 45.214844 36.589844 45.214844 36.523438 L 45.214844 16.609375 C 45.214844 16.539062 45.1875 16.476562 45.140625 16.429688 C 45.09375 16.382812 45.03125 16.355469 44.964844 16.355469 Z M 44.964844 16.355469 " fill-opacity="1" fill-rule="evenodd"/></g><g clip-path="url(#9296afbff6)"><g clip-path="url(#e8894a295c)"><g clip-path="url(#2d8908eb04)"><path fill="#c4d8ff" d="M 43.734375 7.960938 L 44.140625 9.957031 C 44.90625 10.101562 45.625 10.382812 46.269531 10.773438 L 47.941406 9.585938 C 48.484375 9.992188 48.980469 10.460938 49.410156 10.988281 L 48.289062 12.6875 C 48.710938 13.308594 49.03125 14.011719 49.21875 14.765625 L 51.238281 15.109375 C 51.289062 15.449219 51.316406 15.796875 51.324219 16.148438 C 51.332031 16.484375 51.320312 16.816406 51.289062 17.140625 L 49.292969 17.546875 C 49.144531 18.3125 48.867188 19.03125 48.476562 19.675781 L 49.664062 21.347656 C 49.257812 21.890625 48.789062 22.386719 48.261719 22.816406 L 46.5625 21.695312 C 45.941406 22.117188 45.238281 22.4375 44.480469 22.625 L 44.140625 24.644531 C 43.800781 24.695312 43.453125 24.722656 43.101562 24.730469 C 42.765625 24.738281 42.433594 24.726562 42.109375 24.695312 L 41.703125 22.699219 C 40.9375 22.554688 40.21875 22.273438 39.574219 21.882812 L 39.179688 22.164062 L 39.117188 21.898438 C 39.582031 21.515625 39.996094 21.078125 40.359375 20.59375 L 42.5625 21.019531 L 42.789062 20.589844 C 42.929688 20.324219 43.058594 20.058594 43.171875 19.78125 C 45 19.652344 46.421875 18.105469 46.382812 16.253906 C 46.347656 14.527344 45.054688 13.125 43.398438 12.898438 C 43.183594 12.265625 42.898438 11.660156 42.558594 11.085938 L 42.3125 10.671875 L 40.109375 11.179688 C 39.972656 11.015625 39.832031 10.859375 39.683594 10.707031 C 40.203125 10.410156 40.765625 10.179688 41.363281 10.03125 L 41.703125 8.011719 C 42.042969 7.960938 42.390625 7.929688 42.742188 7.925781 C 43.078125 7.917969 43.410156 7.929688 43.734375 7.960938 Z M 38.492188 8.085938 L 38.074219 10.230469 C 38.773438 10.691406 39.367188 11.261719 39.847656 11.914062 L 41.992188 11.421875 C 42.363281 12.050781 42.660156 12.71875 42.875 13.414062 L 41.0625 14.636719 C 41.226562 15.429688 41.253906 16.253906 41.128906 17.078125 L 42.992188 18.25 C 42.902344 18.605469 42.789062 18.960938 42.652344 19.3125 C 42.519531 19.648438 42.371094 19.96875 42.207031 20.28125 L 40.0625 19.863281 C 39.605469 20.5625 39.03125 21.160156 38.382812 21.636719 L 38.871094 23.78125 C 38.246094 24.152344 37.578125 24.449219 36.882812 24.664062 L 35.65625 22.851562 C 34.867188 23.019531 34.039062 23.042969 33.214844 22.917969 L 32.046875 24.78125 C 31.6875 24.691406 31.332031 24.578125 30.980469 24.441406 C 30.644531 24.3125 30.324219 24.160156 30.015625 23.996094 L 30.429688 21.851562 C 29.730469 21.394531 29.136719 20.820312 28.65625 20.171875 L 26.511719 20.664062 C 26.140625 20.035156 25.84375 19.367188 25.632812 18.671875 L 27.441406 17.449219 C 27.277344 16.65625 27.25 15.828125 27.375 15.003906 L 25.511719 13.835938 C 25.601562 13.480469 25.714844 13.125 25.855469 12.769531 C 25.984375 12.4375 26.132812 12.113281 26.296875 11.804688 L 28.441406 12.21875 C 28.898438 11.523438 29.472656 10.925781 30.125 10.445312 L 29.632812 8.304688 C 30.257812 7.929688 30.925781 7.632812 31.625 7.421875 L 32.847656 9.230469 C 33.640625 9.066406 34.464844 9.039062 35.289062 9.164062 L 36.457031 7.300781 C 36.816406 7.394531 37.171875 7.507812 37.523438 7.644531 C 37.859375 7.773438 38.179688 7.921875 38.492188 8.085938 Z M 35.601562 12.582031 C 33.6875 11.839844 31.535156 12.785156 30.792969 14.695312 C 30.046875 16.605469 30.992188 18.757812 32.90625 19.503906 C 34.816406 20.246094 36.96875 19.300781 37.710938 17.390625 C 38.457031 15.480469 37.511719 13.328125 35.601562 12.582031 Z M 35.601562 12.582031 " fill-opacity="1" fill-rule="evenodd"/></g></g></g><g clip-path="url(#e960493fc2)"><g clip-path="url(#0ba0ad767c)"><g clip-path="url(#8b2ea1c168)"><path fill="#c4d8ff" d="M 22.386719 13.375 C 21.863281 13.777344 20.363281 12.636719 20.363281 12.636719 C 20.363281 12.636719 19.640625 10.894531 20.167969 10.488281 L 22.773438 8.480469 C 21.449219 7.851562 19.828125 7.964844 18.585938 8.921875 C 17.378906 9.851562 16.847656 11.335938 17.066406 12.742188 C 12.925781 16.601562 8.433594 20.0625 3.644531 23.082031 C 2.339844 22.503906 0.769531 22.640625 -0.4375 23.574219 C -1.679688 24.53125 -2.207031 26.066406 -1.933594 27.507812 L 0.675781 25.5 C 1.199219 25.097656 2.699219 26.238281 2.699219 26.238281 C 2.699219 26.238281 3.417969 27.980469 2.894531 28.382812 L 0.289062 30.390625 C 1.609375 31.023438 3.230469 30.90625 4.472656 29.953125 C 5.65625 29.042969 6.1875 27.605469 6.003906 26.226562 C 10.167969 22.34375 14.691406 18.863281 19.507812 15.828125 C 20.792969 16.359375 22.316406 16.210938 23.5 15.300781 C 24.742188 14.34375 25.265625 12.808594 24.996094 11.363281 Z M 22.386719 13.375 " fill-opacity="1" fill-rule="nonzero"/></g></g></g><g clip-path="url(#283f1ffaf5)"><path fill="#ebf1fd" d="M 13.648438 30 C 16.914062 32.441406 18.953125 30.402344 22.363281 28.742188 C 19.539062 27.929688 17.386719 25.871094 15.285156 24.394531 C 13.523438 23.15625 11.214844 23.746094 9.199219 24.769531 L 9.199219 29.171875 C 9.199219 29.171875 11.734375 28.570312 13.648438 30 " fill-opacity="1" fill-rule="nonzero"/></g><g clip-path="url(#a1cbaf97c6)"><path fill="#ebf1fd" d="M 30.714844 27.375 C 30.277344 27.613281 29.851562 27.824219 29.4375 28.011719 C 31.574219 29.40625 32.203125 32.234375 35.972656 29.234375 C 40.789062 25.40625 45.671875 27.714844 45.671875 27.714844 L 45.671875 27.375 C 45.671875 27.375 38.429688 23.160156 30.714844 27.375 " fill-opacity="1" fill-rule="nonzero"/></g><g clip-path="url(#b9aec5d0e3)"><path fill="#acc5f6" d="M 35.972656 29.234375 C 32.203125 32.234375 31.574219 29.40625 29.4375 28.011719 C 28.574219 27.449219 27.46875 27.117188 25.8125 27.496094 C 24.496094 27.792969 23.371094 28.25 22.363281 28.742188 C 18.953125 30.402344 16.914062 32.441406 13.648438 30 C 11.734375 28.570312 9.199219 29.171875 9.199219 29.171875 L 9.199219 29.808594 C 9.199219 29.808594 15.890625 34.371094 23.625 31.089844 C 30.640625 28.113281 31.648438 32.367188 35.589844 34.816406 C 37.03125 33.902344 38.316406 32.800781 39.585938 31.90625 C 40.261719 31.433594 41.015625 31.226562 41.808594 31.210938 C 42.542969 29.878906 43.609375 28.78125 45.671875 28.789062 L 45.671875 27.714844 C 45.671875 27.714844 40.789062 25.40625 35.972656 29.234375 " fill-opacity="1" fill-rule="nonzero"/></g><g clip-path="url(#876bcfc500)"><path fill="#c4d8ff" d="M 41.808594 31.210938 C 43.078125 31.183594 44.429688 31.652344 45.671875 32.28125 L 45.671875 28.789062 C 43.609375 28.78125 42.542969 29.878906 41.808594 31.210938 " fill-opacity="1" fill-rule="nonzero"/></g><g clip-path="url(#d004f5ecfc)"><path fill="#c4d8ff" d="M 24.15625 34.886719 C 29.28125 37.6875 32.738281 36.625 35.589844 34.816406 C 31.652344 32.367188 30.640625 28.113281 23.625 31.089844 C 15.890625 34.371094 9.199219 29.808594 9.199219 29.808594 L 9.199219 34.886719 C 9.199219 34.886719 16.441406 30.675781 24.15625 34.886719 " fill-opacity="1" fill-rule="nonzero"/></g><path fill="#ebf1fd" d="M 41.808594 31.210938 C 41.019531 31.226562 40.261719 31.433594 39.585938 31.90625 C 38.316406 32.796875 37.03125 33.902344 35.589844 34.816406 C 35.992188 35.066406 36.425781 35.296875 36.902344 35.5 C 40.210938 36.917969 40.449219 33.667969 41.808594 31.210938 " fill-opacity="1" fill-rule="nonzero"/></svg>