<svg xmlns="http://www.w3.org/2000/svg" xmlns:xlink="http://www.w3.org/1999/xlink" width="80" zoomAndPan="magnify" viewBox="0 0 60 60" height="80" preserveAspectRatio="xMidYMid meet" version="1.0"><defs><g/><clipPath id="4b1d59cd1e"><path d="M 10.078125 6 L 49 6 L 49 52.5 L 10.078125 52.5 Z M 10.078125 6 " clip-rule="nonzero"/></clipPath><clipPath id="6f41d6a072"><path d="M 36 6 L 49.828125 6 L 49.828125 52 L 36 52 Z M 36 6 " clip-rule="nonzero"/></clipPath><clipPath id="91a44a32e6"><path d="M 10.078125 49 L 39 49 L 39 50 L 10.078125 50 Z M 10.078125 49 " clip-rule="nonzero"/></clipPath></defs><g clip-path="url(#4b1d59cd1e)"><path fill="#c4d8ff" d="M 29.535156 19.21875 C 28.878906 19.160156 27.890625 18.949219 27.632812 18.445312 C 27.476562 18.144531 27.605469 17.757812 27.796875 17.546875 C 28.441406 16.839844 29.925781 16.542969 31.191406 16.441406 C 32.109375 16.367188 35.402344 16.414062 35.054688 17.835938 C 34.671875 19.410156 30.691406 19.320312 29.535156 19.21875 Z M 29.753906 22.007812 C 28.488281 22.433594 26.992188 22.800781 25.585938 23.292969 C 24.429688 23.699219 23.179688 24.097656 21.921875 24.449219 C 21.671875 24.523438 21.195312 24.730469 21.355469 24.359375 C 21.191406 24.335938 20.964844 24.417969 20.917969 24.296875 C 20.875 24.175781 21.121094 24.15625 21.292969 24.117188 C 21.449219 24.078125 21.609375 24.03125 21.730469 23.988281 C 22.339844 23.765625 22.777344 23.574219 23.132812 23.113281 C 23.199219 23.023438 23.292969 22.886719 23.335938 22.753906 C 23.394531 22.578125 23.421875 22.445312 23.554688 22.40625 C 23.65625 22.375 23.832031 22.429688 23.964844 22.445312 C 25.019531 22.566406 26.042969 22.394531 26.886719 22.164062 C 27.355469 22.035156 27.839844 21.855469 28.246094 21.648438 C 28.644531 21.449219 29.058594 21.171875 29.289062 20.824219 C 29.347656 20.738281 29.351562 20.621094 29.429688 20.53125 C 29.496094 20.453125 29.574219 20.460938 29.636719 20.375 C 30.085938 20.257812 30.558594 20.3125 31.023438 20.296875 C 31.496094 20.28125 31.953125 20.28125 32.414062 20.207031 C 32.847656 20.140625 33.269531 20.082031 33.675781 19.988281 C 34.285156 19.851562 35.15625 19.539062 35.527344 19.140625 C 35.527344 17.871094 35.527344 17.3125 35.527344 16.042969 C 33.816406 15.09375 30.878906 15.328125 28.707031 16.011719 C 28.835938 15.902344 29.007812 15.773438 29.203125 15.632812 C 30.65625 15.027344 32.128906 14.402344 32.261719 14.28125 C 32.359375 14.1875 32.289062 13.363281 32.28125 13.355469 C 30.339844 14.277344 28.339844 15.1875 26.398438 16.105469 C 26.398438 16.347656 26.398438 16.585938 26.398438 16.828125 C 26.398438 16.828125 26.347656 17.117188 26.078125 17.203125 C 25.808594 17.285156 25.753906 16.476562 25.753906 16.472656 L 25.753906 16.429688 C 23.835938 17.3125 21.980469 18.253906 20.070312 19.140625 C 20.046875 19.339844 20.054688 19.570312 20.035156 19.769531 C 20.960938 19.375 21.953125 18.941406 22.949219 18.550781 C 23.027344 18.519531 23.320312 18.371094 23.375 18.484375 C 23.4375 18.605469 23.113281 18.714844 23.027344 18.753906 C 21.808594 19.367188 20.878906 19.675781 20.726562 21.09375 C 20.5 20.886719 17.867188 20.878906 16.722656 21.292969 C 16.710938 21.25 19.230469 20.167969 19.601562 19.964844 C 19.582031 19.777344 19.578125 19.585938 19.554688 19.398438 C 18.570312 19.835938 17.519531 20.367188 16.40625 20.835938 C 15.894531 21.054688 15.382812 21.316406 14.785156 21.519531 C 14.386719 21.65625 14.003906 21.878906 13.519531 22 C 13.382812 22.035156 13.128906 22.113281 13.058594 22.027344 C 12.816406 21.738281 14.164062 21.105469 14.347656 21.003906 C 14.375 20.917969 14.394531 20.820312 14.386719 20.695312 C 13.96875 20.824219 13.578125 20.980469 13.0625 21.082031 C 12.863281 21.121094 12.652344 21.121094 12.640625 20.929688 C 12.625 20.71875 12.90625 20.597656 13.039062 20.515625 C 15.308594 19.3125 17.828125 18.128906 20.496094 16.644531 C 20.648438 16.5625 20.960938 16.441406 20.933594 16.285156 C 20.886719 16.050781 20.527344 16.304688 20.40625 16.335938 C 20.582031 16.222656 20.789062 16.136719 20.957031 16.015625 C 18.246094 17.171875 15.554688 18.566406 12.882812 19.808594 C 12.695312 19.894531 12.496094 19.988281 12.304688 20.078125 C 12.128906 20.164062 11.914062 20.308594 11.699219 20.234375 C 11.699219 20.074219 11.847656 19.996094 11.957031 19.9375 C 12.785156 19.5 13.613281 19.027344 14.4375 18.574219 C 17.4375 16.925781 22.851562 14.320312 27.523438 11.960938 C 30.550781 10.433594 33.457031 9.023438 34.546875 7.992188 C 32.226562 8.871094 30 10.140625 27.773438 11.257812 C 22.355469 13.984375 16.882812 16.566406 11.480469 19.28125 C 11.332031 19.359375 11.128906 19.488281 10.941406 19.539062 C 10.828125 19.570312 10.78125 19.550781 10.761719 19.515625 C 10.695312 19.390625 10.964844 19.277344 11.046875 19.230469 C 11.878906 18.746094 12.871094 18.234375 13.730469 17.777344 C 20.683594 14.078125 27.6875 10.429688 34.664062 6.773438 C 34.902344 6.644531 35.324219 6.371094 35.5625 6.449219 C 35.945312 6.578125 35.878906 7.1875 35.886719 7.453125 L 35.976562 45.230469 C 35.976562 46.070312 35.976562 46.921875 36.027344 47.75 C 36.035156 47.90625 36.097656 48.054688 36 48.160156 C 35.933594 48.234375 35.855469 48.199219 35.691406 48.199219 C 30.628906 48.171875 25.363281 48.347656 20.355469 48.132812 C 20.257812 48.128906 20.113281 48.148438 20.042969 48.058594 C 20.101562 47.953125 20.25 47.988281 20.339844 47.980469 C 25.109375 47.632812 30.285156 47.507812 35.101562 47.390625 C 35.148438 47.039062 35.140625 46.578125 34.984375 46.347656 C 29.65625 46.523438 22.785156 46.621094 18.011719 46.527344 C 17.886719 46.523438 17.605469 46.523438 17.601562 46.386719 C 17.597656 46.238281 17.941406 46.226562 18.011719 46.21875 C 24.511719 45.816406 30.246094 45.722656 35.113281 45.484375 C 35.277344 45.21875 35.136719 44.75 35.074219 44.46875 C 30.109375 44.589844 25.132812 44.644531 20.171875 44.816406 C 18.757812 44.867188 17.335938 44.894531 15.800781 44.894531 C 15.675781 44.894531 15.292969 44.949219 15.289062 44.777344 C 15.28125 44.589844 15.6875 44.628906 15.789062 44.625 C 17.238281 44.546875 18.683594 44.429688 20.136719 44.378906 C 25.125 44.207031 30.109375 43.835938 35.101562 43.621094 C 35.15625 43.351562 35.183594 42.949219 35.113281 42.671875 C 28.652344 42.914062 21.953125 43.25 15.453125 43.542969 C 14.445312 43.589844 12.988281 43.566406 11.9375 43.710938 C 11.308594 43.800781 11.167969 43.816406 11.164062 44.324219 C 11.148438 45.933594 11.167969 47.652344 11.148438 49.265625 C 11.664062 49.179688 12.214844 49.214844 12.769531 49.214844 C 14.445312 49.214844 15.679688 49.195312 17.332031 49.226562 C 18.441406 49.25 19.550781 49.277344 20.660156 49.277344 C 26.011719 49.277344 31.398438 49.214844 36.742188 49.273438 L 37.816406 50.488281 C 37.769531 50.578125 37.722656 50.667969 37.671875 50.757812 C 37.570312 50.9375 37.457031 51.113281 37.402344 51.296875 C 38.925781 51.296875 46.679688 51.191406 47.867188 51.425781 C 48.121094 51.476562 48.425781 51.476562 48.382812 51.8125 C 48.351562 52.046875 48 52.09375 47.726562 52.132812 C 47.542969 52.160156 47.335938 52.148438 47.148438 52.160156 C 45.996094 52.222656 44.824219 52.234375 43.625 52.234375 C 42.078125 52.234375 40.433594 52.292969 38.894531 52.300781 C 35.722656 52.316406 32.640625 52.328125 29.339844 52.328125 C 27.886719 52.324219 26.234375 52.328125 24.636719 52.328125 C 21.429688 52.324219 18.367188 52.210938 15.160156 52.210938 C 13.804688 52.210938 12.421875 52.203125 11.070312 52.09375 C 10.96875 52.085938 10.652344 52.082031 10.644531 51.925781 C 10.636719 51.703125 11.234375 51.722656 11.46875 51.707031 C 11.835938 51.6875 12.128906 51.675781 12.472656 51.671875 C 12.480469 51.605469 12.433594 51.539062 12.40625 51.476562 C 12.210938 51.027344 11.925781 50.53125 11.765625 50.023438 C 11.371094 50.007812 10.863281 50.042969 10.53125 49.921875 C 10.398438 49.875 10.238281 49.867188 10.183594 49.792969 C 10.089844 49.675781 10.132812 49.1875 10.132812 48.894531 L 10.15625 20.195312 C 10.15625 20.058594 10.15625 19.933594 10.261719 19.835938 C 10.34375 19.820312 10.417969 19.910156 10.480469 19.964844 C 10.597656 20.066406 11.550781 20.925781 11.589844 21.03125 C 11.585938 21.453125 11.605469 22.597656 11.496094 22.933594 C 11.425781 23.132812 11.253906 23.195312 11.195312 23.398438 C 11.179688 23.453125 11.171875 23.515625 11.171875 23.589844 C 11.171875 23.601562 11.15625 23.601562 11.160156 23.617188 C 11.164062 23.652344 11.179688 23.679688 11.195312 23.703125 L 11.261719 32.71875 C 11.300781 32.730469 11.386719 32.65625 11.441406 32.601562 C 11.5 32.550781 11.5625 32.492188 11.621094 32.4375 C 11.710938 32.355469 11.882812 32.109375 11.996094 32.113281 L 18.246094 32.769531 C 18.898438 32.832031 19.542969 32.917969 20.171875 32.925781 C 20.171875 30.34375 20.058594 27.765625 20.082031 25.121094 C 19.445312 24.949219 18.796875 24.816406 18.15625 24.644531 C 16.894531 24.308594 15.644531 23.957031 14.324219 23.667969 C 13.832031 23.558594 13.34375 23.453125 12.871094 23.308594 C 12.742188 23.265625 12.554688 23.242188 12.484375 23.101562 C 12.601562 23.019531 12.816406 23.078125 13 23.101562 C 14.9375 23.351562 16.828125 23.78125 18.667969 24.179688 C 18.992188 24.25 19.335938 24.328125 19.683594 24.386719 C 20.003906 24.441406 20.441406 24.476562 20.480469 24.765625 C 20.480469 24.769531 20.511719 25.476562 20.496094 25.59375 C 20.648438 25.582031 20.851562 25.394531 21.046875 25.390625 C 21.15625 25.386719 22.324219 25.617188 22.347656 25.632812 C 22.417969 25.6875 22.417969 25.804688 22.488281 25.828125 C 22.523438 26.289062 22.503906 26.804688 22.527344 27.28125 C 23.003906 26.617188 23.585938 26.09375 24.53125 25.917969 C 25.054688 25.820312 25.648438 25.890625 26.101562 26.136719 C 26.507812 26.355469 26.894531 26.578125 27.269531 26.804688 C 27.292969 26.007812 27.1875 25.199219 27.246094 24.449219 C 27.335938 24.433594 27.339844 24.332031 27.449219 24.359375 C 27.601562 24.402344 27.558594 25.125 27.566406 25.339844 C 27.605469 26.351562 27.621094 27.554688 27.65625 28.476562 C 27.730469 28.472656 27.859375 28.410156 27.941406 28.371094 C 27.859375 27.3125 27.921875 26.117188 27.886719 25.015625 C 27.878906 24.796875 27.800781 24.007812 28.132812 24.117188 C 28.277344 24.164062 28.214844 24.90625 28.222656 25.105469 C 28.25 26.140625 28.3125 27.207031 28.335938 28.230469 C 28.441406 28.214844 28.535156 28.1875 28.609375 28.140625 C 28.5 26.929688 28.566406 25.5 28.519531 24.179688 C 28.511719 23.980469 28.484375 23.761719 28.644531 23.769531 C 28.792969 23.777344 28.773438 24.035156 28.789062 24.195312 C 28.886719 25.414062 28.882812 26.742188 28.917969 28.011719 C 29.050781 27.984375 29.242188 27.898438 29.363281 27.820312 L 29.328125 23.847656 C 29.320312 23.679688 29.289062 23.402344 29.367188 23.34375 C 29.46875 23.269531 29.753906 23.382812 29.84375 23.410156 C 30.191406 23.515625 30.375 23.597656 30.730469 23.707031 C 30.878906 23.75 31.089844 23.835938 31.140625 23.925781 C 31.175781 23.984375 31.195312 26.4375 31.191406 26.753906 C 31.34375 26.710938 31.4375 26.597656 31.566406 26.496094 C 31.65625 26.421875 31.882812 26.292969 31.910156 26.1875 C 31.933594 26.109375 31.898438 25.945312 31.898438 25.800781 C 31.898438 25.132812 31.890625 24.582031 31.9375 23.910156 C 31.953125 23.703125 31.9375 23.292969 32.078125 23.28125 C 32.273438 23.265625 32.289062 24.230469 32.308594 24.425781 C 32.363281 24.867188 32.433594 25.222656 32.4375 25.671875 C 32.492188 25.707031 32.535156 25.617188 32.566406 25.582031 C 32.65625 25.488281 32.898438 25.28125 32.925781 25.144531 C 32.949219 25.039062 32.921875 24.878906 32.925781 24.734375 C 32.96875 23.808594 32.96875 22.742188 32.980469 21.816406 C 31.703125 22.25 30.359375 22.679688 29.007812 23.089844 C 27.6875 23.488281 26.332031 23.917969 24.96875 24.308594 C 24.316406 24.496094 23.644531 24.738281 22.925781 24.902344 C 22.828125 24.921875 22.695312 24.953125 22.550781 24.964844 C 22.433594 24.976562 22.242188 24.976562 22.230469 24.875 C 22.21875 24.761719 22.449219 24.71875 22.550781 24.683594 C 23.40625 24.371094 24.273438 24.035156 25.136719 23.730469 C 26.824219 23.136719 28.144531 22.652344 29.753906 22.007812 Z M 26.332031 17.242188 C 26.335938 17.242188 26.859375 17.050781 27.402344 16.8125 C 27.417969 16.8125 27.433594 16.820312 27.449219 16.828125 C 27.480469 16.976562 27.351562 17.125 27.269531 17.261719 C 27.1875 17.410156 26.984375 17.710938 26.894531 18.074219 C 26.828125 18.355469 26.875 18.730469 26.808594 18.769531 C 26.378906 18.546875 24.835938 18.5625 24.542969 18.5625 C 24.316406 18.5625 24.105469 18.625 23.902344 18.589844 C 23.875 18.5 23.996094 18.371094 24.054688 18.316406 C 24.128906 18.253906 24.265625 18.199219 24.351562 18.164062 C 24.757812 18 25.175781 17.792969 25.582031 17.597656 L 25.972656 17.414062 C 26.046875 17.378906 26.117188 17.347656 26.191406 17.316406 C 26.183594 17.316406 26.175781 17.320312 26.167969 17.320312 Z M 29.300781 12.339844 C 29.753906 12.132812 30.179688 11.910156 30.613281 11.683594 C 30.875 11.546875 31.207031 11.402344 31.488281 11.257812 C 31.605469 11.199219 31.753906 11.101562 31.925781 11.039062 C 32.082031 10.984375 32.339844 10.953125 32.335938 10.796875 C 32.335938 10.644531 32.175781 10.644531 32.105469 10.679688 C 31.972656 10.75 31.816406 10.792969 31.667969 10.859375 C 30.804688 11.25 29.949219 11.683594 29.148438 12.121094 C 29.027344 12.1875 28.828125 12.261719 28.839844 12.441406 C 28.996094 12.523438 29.171875 12.398438 29.300781 12.339844 Z M 32.683594 12.082031 C 32.515625 12.027344 32.335938 11.945312 32.222656 11.980469 C 32.183594 11.996094 32.175781 12.046875 32.144531 12.070312 C 30.191406 12.992188 28.277344 13.945312 26.34375 14.886719 C 26.359375 15.109375 26.363281 15.347656 26.382812 15.566406 C 28.351562 14.632812 30.289062 13.667969 32.261719 12.738281 C 32.265625 12.617188 32.242188 12.464844 32.273438 12.363281 C 32.730469 12.492188 34.660156 13.074219 35.035156 13.058594 C 34.863281 12.800781 32.90625 12.15625 32.683594 12.082031 Z M 26.859375 13.199219 C 26.746094 13.257812 26.390625 13.414062 26.421875 13.585938 C 26.449219 13.726562 26.636719 13.660156 26.742188 13.613281 C 27.019531 13.488281 27.15625 13.402344 27.386719 13.277344 C 27.480469 13.226562 27.679688 13.179688 27.667969 13.070312 C 27.660156 12.972656 27.53125 12.972656 27.449219 12.980469 C 27.238281 13.003906 27.023438 13.117188 26.859375 13.199219 Z M 24.6875 14.230469 C 24.582031 14.289062 24.230469 14.425781 24.289062 14.613281 C 24.347656 14.8125 24.894531 14.527344 24.957031 14.5 C 25.089844 14.4375 25.535156 14.269531 25.457031 14.050781 C 25.425781 13.960938 25.292969 13.972656 25.226562 13.984375 C 25.03125 14.019531 24.839844 14.140625 24.6875 14.230469 Z M 22.308594 15.8125 C 22.558594 15.714844 22.769531 15.613281 22.988281 15.488281 C 23.066406 15.445312 23.273438 15.371094 23.257812 15.246094 C 23.238281 15.050781 22.871094 15.203125 22.757812 15.246094 C 22.648438 15.285156 22.546875 15.347656 22.449219 15.398438 C 22.234375 15.511719 21.980469 15.589844 21.949219 15.824219 C 22.042969 15.9375 22.191406 15.855469 22.308594 15.8125 Z M 20.042969 17.96875 C 20.058594 18.160156 20.046875 18.378906 20.070312 18.5625 C 21.011719 18.148438 21.941406 17.660156 22.898438 17.210938 C 23.859375 16.765625 24.835938 16.339844 25.765625 15.863281 C 25.746094 15.632812 25.800781 15.339844 25.753906 15.167969 C 23.839844 16.089844 21.957031 17.046875 20.042969 17.96875 Z M 19.554688 18.203125 C 19.082031 18.441406 14.941406 20.308594 14.902344 20.464844 C 14.871094 20.59375 14.984375 20.734375 14.941406 20.851562 C 15.023438 20.894531 15.148438 20.960938 15.210938 20.980469 C 16.621094 20.230469 18.074219 19.523438 19.542969 18.832031 C 19.53125 18.613281 19.566406 18.375 19.554688 18.203125 Z M 33.457031 21.648438 C 33.558594 22.46875 33.582031 23.410156 33.558594 24.285156 C 34.257812 23.464844 34.351562 22.449219 34.164062 21.429688 C 33.921875 21.5 33.679688 21.566406 33.457031 21.648438 Z M 34.921875 22.675781 C 34.589844 23.679688 34.066406 24.574219 33.441406 25.339844 C 32.488281 26.507812 31.160156 27.589844 29.816406 28.257812 C 29.757812 28.285156 29.691406 28.308594 29.628906 28.335938 L 29.070312 28.566406 C 28.714844 28.726562 28.074219 28.914062 27.578125 29.003906 C 27.160156 29.078125 26.734375 29.140625 26.910156 29.632812 C 30.355469 29 34.660156 26.535156 34.972656 22.664062 C 34.953125 22.660156 34.949219 22.644531 34.933594 22.636719 C 34.933594 22.65625 34.929688 22.667969 34.921875 22.675781 Z M 32.15625 27.9375 C 30.808594 28.957031 28.929688 29.714844 27.195312 29.992188 C 27.0625 30.003906 26.742188 29.957031 26.667969 30.03125 C 26.597656 30.101562 26.628906 30.261719 26.679688 30.351562 C 26.84375 30.425781 27.011719 30.402344 27.179688 30.378906 C 27.347656 30.355469 27.527344 30.359375 27.707031 30.328125 C 29.339844 30.039062 31.773438 28.816406 33.03125 27.769531 C 33.886719 27.054688 34.730469 26.253906 34.984375 24.976562 C 34.984375 24.96875 34.984375 24.964844 34.972656 24.964844 C 34.367188 25.917969 32.949219 27.332031 32.15625 27.9375 Z M 21.097656 26.355469 C 21.089844 26.292969 20.996094 26.261719 20.917969 26.265625 C 20.769531 26.265625 20.484375 26.417969 20.546875 26.609375 C 20.679688 26.675781 21.121094 26.5 21.097656 26.355469 Z M 23.011719 27.433594 C 22.445312 28.253906 22.246094 29.519531 22.847656 30.3125 C 23.632812 31.351562 24.773438 31.226562 25.539062 30.730469 C 26.183594 30.3125 26.464844 29.601562 26.371094 29.375 C 26.257812 29.367188 26.207031 29.496094 26.164062 29.570312 C 25.734375 30.308594 25.136719 30.855469 24.210938 30.765625 C 23.21875 30.667969 22.738281 29.625 22.949219 28.605469 C 23.074219 28.015625 23.445312 27.410156 23.851562 27.074219 C 24.613281 26.4375 25.214844 26.535156 26.023438 26.984375 C 25.84375 26.53125 25.027344 26.253906 24.433594 26.417969 C 23.777344 26.597656 23.277344 27.046875 23.011719 27.433594 Z M 20.558594 27.511719 C 20.582031 27.585938 20.71875 27.578125 20.789062 27.5625 C 20.925781 27.535156 21.140625 27.4375 21.136719 27.28125 C 21.011719 27.148438 20.507812 27.347656 20.558594 27.511719 Z M 26.460938 28.011719 C 26.667969 27.988281 26.429688 27.378906 26.28125 27.460938 C 26.101562 27.554688 26.347656 28.027344 26.460938 28.011719 Z M 25.882812 29.515625 C 25.957031 29.398438 25.886719 29.261719 25.765625 29.207031 C 25.71875 28.980469 25.722656 28.800781 25.710938 28.527344 C 25.707031 28.4375 25.667969 27.769531 25.652344 27.691406 C 25.628906 27.59375 25.484375 27.484375 25.367188 27.5625 C 25.335938 27.773438 25.046875 28.050781 25.085938 28.230469 C 25.117188 28.375 25.300781 28.339844 25.367188 28.296875 C 25.371094 28.675781 25.414062 28.996094 25.394531 29.324219 C 25.289062 29.394531 25.066406 29.464844 25.109375 29.683594 C 25.164062 29.792969 25.867188 29.539062 25.882812 29.515625 Z M 24.160156 27.78125 C 23.949219 27.785156 23.578125 28.015625 23.621094 28.207031 C 23.664062 28.425781 23.820312 28.222656 23.921875 28.179688 C 24.320312 28.003906 24.234375 28.46875 24.03125 28.605469 C 23.949219 28.660156 23.84375 28.675781 23.824219 28.757812 C 23.804688 28.84375 23.871094 28.960938 23.941406 28.976562 C 24.042969 29 24.152344 28.863281 24.289062 28.886719 C 24.574219 28.933594 24.429688 29.53125 24.03125 29.464844 C 23.925781 29.449219 23.90625 29.363281 23.800781 29.363281 C 23.640625 29.363281 23.546875 29.503906 23.59375 29.644531 C 23.695312 29.976562 24.355469 29.90625 24.636719 29.53125 C 24.78125 29.34375 24.832031 29.03125 24.660156 28.742188 C 24.617188 28.667969 24.570312 28.609375 24.46875 28.589844 C 24.65625 28.292969 24.574219 27.773438 24.160156 27.78125 Z M 33.957031 32.960938 C 34.1875 33.007812 34.414062 33.128906 34.625 33.15625 C 34.578125 31.605469 34.613281 29.917969 34.484375 28.410156 C 33.699219 30.046875 34.171875 31.179688 33.957031 32.960938 Z M 20.570312 28.71875 C 20.59375 28.855469 20.859375 28.8125 20.96875 28.757812 C 21.089844 28.699219 21.167969 28.609375 21.226562 28.527344 C 21.085938 28.339844 20.542969 28.542969 20.570312 28.71875 Z M 33.402344 30.402344 C 33.402344 30.320312 33.417969 28.652344 32.851562 29.246094 C 32.382812 29.738281 32.609375 32.359375 32.257812 32.359375 C 32.042969 32.359375 31.996094 30.742188 31.976562 30.480469 C 31.945312 30.054688 31.917969 29.628906 31.898438 29.222656 C 31.707031 29.304688 31.539062 29.410156 31.371094 29.515625 C 31.382812 30.476562 31.386719 31.441406 31.425781 32.371094 C 32.109375 32.539062 32.828125 32.671875 33.519531 32.832031 C 33.476562 32.054688 33.429688 31.226562 33.402344 30.402344 Z M 20.625 29.902344 C 20.667969 30.253906 21.535156 29.625 20.957031 29.683594 C 20.792969 29.699219 20.605469 29.761719 20.625 29.902344 Z M 29.378906 30.351562 C 29.378906 30.339844 29.363281 30.332031 29.355469 30.328125 C 29.265625 30.375 29.144531 30.390625 29.046875 30.429688 C 29.074219 30.875 29.085938 31.339844 29.082031 31.820312 C 29.21875 31.824219 29.320312 31.863281 29.429688 31.894531 C 29.359375 31.480469 29.414062 30.824219 29.378906 30.351562 Z M 28.683594 30.519531 C 28.636719 30.503906 28.535156 30.550781 28.464844 30.558594 C 28.457031 31.027344 28.484375 31.457031 28.480469 31.921875 C 28.570312 31.902344 28.648438 31.875 28.738281 31.855469 C 28.691406 31.441406 28.710938 30.957031 28.683594 30.519531 Z M 22.578125 33.097656 L 27.414062 32.089844 C 27.40625 31.796875 27.421875 31.53125 27.425781 31.253906 C 26.5625 32.132812 24.84375 32.105469 23.824219 31.601562 C 24 31.601562 24.316406 31.6875 24.851562 31.726562 C 25.503906 31.773438 26.375 31.757812 26.460938 31.585938 C 25.996094 31.550781 25.539062 31.507812 25.125 31.417969 C 25.332031 31.382812 25.972656 31.226562 26.089844 30.660156 C 25.363281 31.523438 23.40625 31.910156 22.566406 30.609375 C 22.542969 31.445312 22.570312 32.257812 22.578125 33.097656 Z M 27.757812 30.738281 C 27.785156 31.160156 27.769531 31.621094 27.796875 32.035156 C 27.902344 32.046875 27.96875 32.015625 28.054688 32.011719 C 27.945312 31.640625 28.066406 31.039062 27.925781 30.699219 C 27.882812 30.722656 27.792969 30.703125 27.757812 30.738281 Z M 20.558594 31.046875 C 20.589844 31.316406 21.25 31.03125 21.1875 30.855469 C 21.164062 30.777344 21.054688 30.796875 20.996094 30.800781 C 20.828125 30.816406 20.539062 30.875 20.558594 31.046875 Z M 20.636719 31.945312 C 20.558594 32.292969 21.175781 32.121094 21.136719 31.910156 C 21.117188 31.792969 20.976562 31.816406 20.855469 31.832031 C 20.71875 31.847656 20.65625 31.863281 20.636719 31.945312 Z M 28.96875 32.578125 C 28.078125 32.632812 22.347656 33.769531 22.308594 33.796875 C 22.265625 33.828125 22.230469 33.871094 22.210938 33.917969 C 22.128906 34.097656 22.226562 36.695312 22.269531 36.96875 C 22.53125 37.035156 22.941406 36.832031 23.15625 36.933594 C 23.183594 37.421875 23.261719 37.925781 23.335938 38.324219 C 23.28125 38.382812 23.148438 38.371094 23.09375 38.425781 C 23.167969 38.441406 23.285156 38.425781 23.285156 38.542969 C 23.359375 38.636719 22.898438 38.660156 22.484375 38.707031 C 21.757812 38.785156 20.824219 38.839844 20.648438 38.851562 C 20.71875 40.203125 20.769531 41.566406 20.855469 42.902344 C 21.125 42.898438 21.371094 42.878906 21.625 42.863281 C 21.605469 42.808594 21.527344 42.75 21.535156 42.644531 C 21.5625 42.398438 22.046875 42.398438 22.332031 42.386719 C 23.289062 42.347656 24.625 42.234375 25.566406 42.320312 C 25.933594 42.355469 26.414062 42.492188 26.421875 42.488281 C 26.410156 42.417969 26.324219 42.40625 26.28125 42.375 C 25.425781 41.777344 24.792969 40.871094 24.300781 39.917969 C 23.769531 38.894531 23.359375 37.621094 23.503906 36.074219 C 23.320312 36.082031 23.132812 36.203125 22.988281 36.085938 C 22.957031 36.058594 22.902344 35.914062 22.886719 35.828125 C 22.859375 35.683594 22.832031 34.808594 22.875 34.710938 C 23.078125 34.449219 25.933594 34.007812 25.921875 34.03125 C 26.15625 34.042969 26.179688 34.414062 26.179688 34.761719 C 26.179688 35.226562 26.292969 35.535156 25.894531 35.574219 C 25.886719 35.898438 25.890625 36.289062 25.984375 36.550781 C 25.988281 36.347656 26.398438 36.335938 26.617188 36.292969 C 27.207031 36.171875 27.886719 36.042969 28.429688 35.945312 C 28.480469 35.3125 28.449219 34.558594 28.480469 33.875 C 28.484375 33.722656 28.460938 33.277344 28.59375 33.285156 C 28.726562 33.289062 28.722656 33.710938 28.738281 33.863281 C 28.800781 34.550781 28.808594 35.308594 28.917969 35.910156 C 29.082031 35.910156 29.25 35.867188 29.417969 35.867188 C 29.464844 34.964844 29.460938 34.011719 29.484375 33.078125 C 29.324219 33.039062 29.023438 33.15625 29.007812 33.027344 C 28.996094 32.933594 29.296875 32.835938 29.445312 32.820312 C 29.660156 32.800781 29.78125 32.898438 29.90625 32.9375 C 29.890625 33.027344 29.980469 33.050781 29.996094 33.117188 C 30.046875 33.304688 29.996094 33.589844 29.996094 33.8125 C 29.996094 34.511719 29.988281 35.242188 30.007812 35.894531 C 30.289062 35.90625 30.523438 35.960938 30.78125 35.996094 C 30.785156 35.058594 30.839844 34.171875 30.898438 33.285156 C 30.996094 33.3125 31.125 33.3125 31.207031 33.359375 C 31.269531 34.230469 31.242188 35.183594 31.257812 36.074219 C 31.515625 36.140625 31.789062 36.191406 32.066406 36.242188 C 32.015625 35.308594 32.066406 34.410156 32.105469 33.503906 C 32.246094 33.527344 32.386719 33.546875 32.503906 33.59375 C 32.503906 34.507812 32.46875 35.417969 32.515625 36.304688 C 33.1875 36.457031 33.878906 36.589844 34.585938 36.703125 C 34.605469 36.585938 34.527344 36.527344 34.433594 36.484375 C 34.175781 36.371094 33.820312 36.308594 33.582031 36.203125 C 33.527344 36.175781 33.414062 36.117188 33.390625 36.0625 C 33.308594 35.871094 33.425781 35.558594 33.378906 35.289062 C 33.496094 35.320312 33.644531 35.355469 33.789062 35.367188 C 33.960938 35.378906 34.4375 35.320312 34.445312 35.226562 C 34.453125 35.136719 34.28125 35.105469 34.226562 35.082031 C 33.960938 34.972656 33.667969 34.859375 33.402344 34.789062 C 33.433594 34.503906 33.398438 34.15625 33.429688 33.875 C 33.695312 33.730469 34.410156 34.027344 34.585938 33.722656 C 33.410156 33.375 30.074219 32.507812 28.96875 32.578125 Z M 20.636719 32.886719 C 20.644531 33.152344 21.117188 32.972656 21.085938 32.78125 C 21.070312 32.671875 20.953125 32.6875 20.84375 32.707031 C 20.691406 32.730469 20.632812 32.769531 20.636719 32.886719 Z M 11.261719 33.695312 C 11.28125 34.78125 11.230469 35.867188 11.261719 36.921875 C 11.300781 36.238281 11.320312 35.554688 11.351562 34.839844 C 11.359375 34.691406 11.355469 34.265625 11.507812 34.261719 C 11.652344 34.257812 11.640625 34.628906 11.648438 34.777344 C 11.714844 36.246094 11.652344 37.894531 11.738281 39.300781 C 11.746094 39.300781 12.273438 39.589844 12.355469 39.570312 C 12.363281 38.070312 12.359375 36.582031 12.382812 35.070312 C 12.386719 34.8125 12.382812 34.582031 12.5625 34.597656 C 12.691406 34.605469 12.707031 34.820312 12.714844 35.007812 C 12.847656 37.777344 12.828125 40.578125 12.910156 43.339844 C 13.136719 43.324219 13.363281 43.3125 13.589844 43.300781 C 13.511719 40.160156 13.640625 36.929688 13.5 33.886719 C 12.753906 33.816406 11.996094 33.753906 11.277344 33.65625 C 11.261719 33.660156 11.261719 33.675781 11.261719 33.695312 Z M 14.734375 34.453125 C 14.753906 34.214844 14.808594 33.902344 14.492188 33.941406 C 14.21875 33.972656 14.308594 34.300781 14.324219 34.53125 C 14.355469 34.984375 14.378906 35.480469 14.414062 35.984375 C 14.441406 36.359375 14.457031 36.730469 14.476562 37.078125 C 14.484375 37.191406 14.457031 37.328125 14.527344 37.425781 C 14.628906 36.539062 14.65625 35.363281 14.734375 34.453125 Z M 21.394531 35.6875 C 21.40625 35.921875 21.414062 36.269531 21.421875 36.523438 C 21.421875 36.648438 21.425781 36.84375 21.441406 36.996094 C 21.457031 37.128906 21.476562 37.230469 21.601562 37.21875 C 21.734375 37.203125 21.71875 36.570312 21.691406 35.945312 C 21.671875 35.414062 21.644531 34.886719 21.640625 34.761719 C 21.628906 34.527344 21.644531 33.90625 21.382812 34.082031 C 21.285156 34.5625 21.371094 35.117188 21.394531 35.6875 Z M 20.738281 34.261719 C 20.695312 34.304688 20.714844 34.660156 20.714844 34.878906 C 20.714844 35.558594 20.804688 36.324219 20.804688 36.847656 C 20.800781 37.617188 21.09375 37.53125 21.046875 36.820312 C 21.007812 36.21875 21.015625 35.414062 20.96875 34.8125 C 20.953125 34.597656 20.945312 34.386719 20.855469 34.234375 C 20.808594 34.234375 20.753906 34.226562 20.738281 34.261719 Z M 19.660156 34.390625 C 19.503906 34.234375 16.898438 34.910156 16.574219 35.03125 C 15.871094 35.296875 15.863281 35.523438 15.875 36.144531 L 15.917969 38.414062 C 16.066406 38.304688 16.109375 38.121094 16.25 37.988281 C 16.566406 37.695312 19.109375 37.441406 19.734375 37.308594 Z M 20.082031 34.917969 L 20.136719 37.0625 C 20.148438 37.230469 20.144531 37.363281 20.28125 37.359375 C 20.378906 37.359375 20.394531 37.28125 20.40625 37.167969 C 20.417969 37.03125 20.40625 36.847656 20.394531 36.703125 C 20.359375 36.167969 20.371094 35.617188 20.339844 35.070312 C 20.328125 34.859375 20.3125 34.246094 20.109375 34.429688 C 20.0625 34.507812 20.085938 34.730469 20.082031 34.917969 Z M 24.984375 36.519531 C 25.316406 38.542969 26.125 40.070312 27.195312 41.34375 C 27.667969 41.914062 28.542969 42.40625 29.316406 42.257812 C 28.527344 42.144531 28.007812 41.628906 27.578125 41.101562 C 27.207031 40.644531 26.882812 40.109375 26.601562 39.585938 C 26.007812 38.46875 25.488281 37.105469 25.433594 35.496094 C 24.777344 35.300781 24.929688 36.164062 24.984375 36.519531 Z M 24.289062 35.625 C 24.125 35.667969 24.023438 35.773438 23.941406 35.894531 C 23.890625 36.824219 24.035156 37.703125 24.269531 38.492188 C 24.390625 38.902344 24.605469 39.566406 24.996094 40.238281 C 25.625 41.316406 26.582031 42.390625 27.425781 42.296875 C 27.410156 42.273438 27.128906 42.105469 26.867188 41.871094 C 25.546875 40.671875 24.96875 39.519531 24.570312 37.808594 C 24.414062 37.140625 24.316406 36.40625 24.300781 35.625 C 24.296875 35.625 24.292969 35.625 24.289062 35.625 Z M 34.394531 37.769531 C 33.480469 37.652344 28.875 38.023438 26.691406 38.066406 C 26.714844 38.300781 26.777344 38.5 26.960938 38.542969 C 27.058594 38.566406 27.234375 38.511719 27.398438 38.492188 C 27.675781 38.457031 34.515625 37.996094 34.472656 37.796875 C 34.484375 37.746094 34.40625 37.773438 34.394531 37.769531 Z M 27.359375 39.3125 C 27.410156 39.472656 27.464844 39.621094 27.566406 39.726562 C 28.070312 39.679688 34.882812 39.214844 34.742188 38.839844 C 32.363281 38.714844 29.746094 39.171875 27.359375 39.3125 Z M 16.03125 38.914062 C 15.933594 39.253906 16.128906 39.335938 16.425781 39.378906 C 16.835938 39.4375 19.800781 39.898438 19.828125 39.667969 C 19.84375 39.503906 19.707031 39.4375 19.519531 39.417969 C 18.53125 39.304688 17.335938 39.148438 16.265625 39.070312 C 16.238281 38.976562 16.15625 38.835938 16.03125 38.914062 Z M 16.070312 40.433594 C 16.207031 40.550781 16.796875 40.554688 16.996094 40.574219 C 17.820312 40.652344 18.585938 40.78125 19.453125 40.828125 C 19.554688 40.832031 19.863281 40.875 19.890625 40.753906 C 19.914062 40.648438 19.691406 40.574219 19.582031 40.546875 L 16.289062 40.148438 C 16.148438 39.707031 15.824219 40.21875 16.070312 40.433594 Z M 34.726562 40.007812 C 32.585938 40.199219 30.238281 40.390625 28.105469 40.496094 C 28.132812 40.660156 28.253906 40.835938 28.390625 40.933594 C 30.046875 40.636719 33.578125 40.644531 34.882812 40.113281 C 34.863281 40.007812 34.789062 40.003906 34.726562 40.007812 Z M 30.84375 41.707031 C 31.0625 41.707031 34.464844 41.648438 34.574219 41.589844 C 35.75 40.976562 31.566406 41.429688 30.84375 41.511719 C 30.699219 41.53125 30.496094 41.507812 30.40625 41.640625 C 30.523438 41.738281 30.695312 41.707031 30.84375 41.707031 Z M 16.007812 41.601562 C 16.066406 41.855469 16.171875 41.832031 16.457031 41.875 C 16.605469 41.894531 19.757812 42.328125 19.75 42.015625 C 19.746094 41.890625 19.222656 41.851562 18.421875 41.757812 C 17.585938 41.660156 16.46875 41.507812 16.304688 41.511719 C 16.226562 41.261719 15.929688 41.257812 16.007812 41.601562 Z M 15.570312 50.746094 C 15.640625 50.671875 15.734375 50.585938 15.828125 50.488281 C 15.910156 50.398438 16.03125 50.296875 16.046875 50.191406 C 16.085938 49.910156 15.769531 49.773438 15.582031 49.949219 C 15.464844 50.058594 15.402344 50.308594 15.3125 50.511719 C 15.191406 50.789062 15.03125 50.976562 15.054688 51.257812 C 15.273438 51.136719 15.390625 50.9375 15.570312 50.746094 Z M 17.113281 50.152344 C 16.886719 50.570312 16.640625 51.023438 16.394531 51.414062 C 16.363281 51.460938 16.289062 51.503906 16.316406 51.566406 C 18.046875 51.542969 19.757812 51.492188 21.472656 51.453125 C 21.320312 51.078125 21.167969 50.59375 21.035156 50.152344 C 19.726562 50.15625 18.464844 50.109375 17.152344 50.113281 C 17.132812 50.121094 17.121094 50.132812 17.113281 50.152344 Z M 21.394531 50.167969 C 21.570312 50.59375 21.773438 51.097656 22.078125 51.4375 C 22.140625 51.449219 22.167969 51.421875 22.230469 51.425781 C 22.132812 50.976562 21.96875 50.589844 21.84375 50.167969 C 21.671875 50.175781 21.464844 50.152344 21.394531 50.167969 Z M 25.226562 51.402344 C 27.601562 51.359375 30.015625 51.355469 32.386719 51.308594 C 32.234375 50.96875 32.027344 50.574219 31.859375 50.203125 C 29.777344 50.199219 27.722656 50.171875 25.597656 50.179688 C 25.464844 50.574219 25.355469 50.996094 25.226562 51.402344 Z M 33.878906 51.195312 C 34.042969 50.855469 34.222656 50.527344 34.417969 50.21875 C 33.839844 50.226562 33.226562 50.199219 32.671875 50.230469 C 32.914062 50.703125 33.128906 51.273438 33.878906 51.195312 Z M 21.535156 41.898438 C 21.519531 41.816406 21.429688 41.695312 21.460938 41.5625 C 21.492188 41.417969 21.785156 41.398438 22.011719 41.359375 C 22.648438 41.246094 23.480469 41.207031 24.09375 41.164062 C 24.730469 41.121094 25.117188 41.695312 24.75 41.871094 C 24.585938 41.953125 24.242188 41.917969 23.964844 41.925781 C 23.242188 41.945312 22.148438 41.996094 21.535156 41.898438 Z M 23.734375 40.035156 C 23.96875 40.019531 24.179688 40.070312 24.183594 40.304688 C 24.195312 40.648438 23.816406 40.625 23.453125 40.652344 C 22.972656 40.6875 22.535156 40.6875 21.972656 40.675781 C 21.671875 40.671875 21.296875 40.652344 21.292969 40.433594 C 21.289062 40.230469 21.507812 40.242188 21.78125 40.214844 C 21.992188 40.191406 22.226562 40.160156 22.421875 40.148438 C 22.871094 40.125 23.277344 40.023438 23.710938 40.035156 C 23.71875 40.035156 23.726562 40.035156 23.734375 40.035156 Z M 23.078125 39.558594 C 22.667969 39.566406 22 39.609375 21.5625 39.585938 C 21.375 39.574219 21.019531 39.511719 21.007812 39.351562 C 20.988281 39.058594 21.738281 39.066406 22 39.03125 C 22.445312 38.96875 22.804688 38.921875 23.183594 38.914062 C 23.503906 38.910156 24.089844 39.539062 23.078125 39.558594 Z M 14.234375 29.15625 C 14.316406 29.140625 14.375 29.15625 14.386719 29.222656 C 14.414062 29.359375 14.078125 29.558594 14.015625 29.621094 C 13.855469 29.773438 13.59375 30.113281 13.410156 30.351562 C 13.335938 30.449219 13.257812 30.609375 13.089844 30.546875 C 12.949219 30.492188 12.746094 30.46875 12.765625 30.222656 C 12.78125 30.089844 12.984375 29.960938 13.074219 29.902344 C 13.457031 29.660156 13.84375 29.402344 14.207031 29.167969 C 14.21875 29.164062 14.21875 29.160156 14.234375 29.15625 Z M 12.804688 28.347656 C 12.402344 28.582031 12.3125 27.746094 12.742188 27.859375 C 12.925781 27.90625 13.171875 27.992188 13.476562 28.0625 C 13.71875 28.121094 14.117188 28.1875 14.089844 28.386719 C 14.078125 28.507812 13.84375 28.5 13.65625 28.488281 C 13.390625 28.46875 13.019531 28.433594 12.804688 28.347656 Z M 13.964844 26.738281 C 13.800781 26.738281 13.632812 26.664062 13.460938 26.574219 C 13.316406 26.496094 13.085938 26.304688 13.0625 26.175781 C 13.039062 26.03125 13.164062 25.921875 13.308594 25.96875 C 13.402344 26 13.542969 26.125 13.640625 26.210938 C 13.714844 26.277344 13.785156 26.367188 13.847656 26.445312 C 13.921875 26.53125 14.011719 26.644531 13.964844 26.738281 Z M 13.820312 31.367188 C 14.035156 30.914062 14.230469 30.445312 14.453125 29.992188 C 14.574219 29.746094 14.621094 29.488281 14.773438 29.285156 C 14.65625 29.058594 14.488281 28.898438 14.476562 28.566406 C 14.46875 28.25 14.582031 27.964844 14.722656 27.792969 C 14.769531 27.734375 15.175781 27.382812 15.210938 27.625 C 15.230469 27.769531 14.941406 27.933594 14.875 28.0625 C 14.707031 28.414062 14.910156 28.828125 15.199219 29.015625 C 15.664062 29.320312 16.605469 29.191406 16.546875 28.460938 C 16.539062 28.347656 16.503906 28.226562 16.445312 28.128906 C 16.394531 28.042969 16.277344 27.949219 16.304688 27.832031 C 16.320312 27.761719 16.402344 27.691406 16.46875 27.691406 C 16.589844 27.6875 16.683594 27.847656 16.753906 27.949219 C 16.910156 28.171875 17.039062 28.558594 16.894531 28.914062 C 17.453125 29.359375 18.105469 29.707031 18.746094 30.070312 C 18.902344 29.800781 18.996094 29.46875 19.054688 29.105469 C 18.546875 28.988281 18.003906 28.9375 17.472656 28.796875 C 17.335938 28.761719 17.125 28.679688 17.125 28.527344 C 17.128906 28.355469 17.339844 28.347656 17.511719 28.332031 C 18.039062 28.292969 18.617188 28.253906 19.082031 28.167969 C 19.035156 27.6875 18.914062 27.28125 18.746094 26.917969 C 18.316406 27.109375 17.835938 27.351562 17.359375 27.589844 C 17.238281 27.648438 17.074219 27.738281 16.960938 27.714844 C 16.859375 27.695312 16.84375 27.585938 16.792969 27.511719 C 16.945312 27.253906 17.164062 27.058594 17.382812 26.855469 C 17.65625 26.605469 17.867188 26.296875 18.179688 26.082031 C 17.839844 25.621094 17.355469 25.296875 16.804688 25.042969 C 16.574219 25.519531 16.503906 26.121094 16.289062 26.664062 C 16.273438 26.699219 16.214844 26.835938 16.148438 26.816406 C 16.058594 26.789062 16.140625 26.148438 16.148438 25.992188 C 16.160156 25.710938 16.1875 25.453125 16.214844 25.144531 C 16.222656 25.039062 16.246094 24.925781 16.304688 24.847656 C 15.96875 24.707031 15.554688 24.648438 15.09375 24.628906 C 15.117188 25.273438 15.320312 25.914062 15.328125 26.570312 C 15.167969 26.492188 15.140625 26.289062 15.082031 26.136719 C 14.902344 25.667969 14.71875 25.128906 14.515625 24.667969 C 13.964844 24.75 13.542969 24.949219 13.140625 25.195312 C 13.015625 25.273438 12.902344 25.402344 12.742188 25.402344 C 12.710938 25.289062 12.824219 25.183594 12.894531 25.121094 C 13.5 24.566406 14.476562 24.136719 15.660156 24.195312 C 16.871094 24.253906 17.777344 24.824219 18.449219 25.453125 C 20.523438 27.398438 20.363281 30.75 17.691406 31.972656 C 17.230469 32.183594 16.710938 32.355469 16.058594 32.359375 C 14.902344 32.363281 13.984375 31.902344 13.257812 31.394531 C 13.167969 31.332031 12.992188 31.242188 12.972656 31.148438 C 12.945312 31.011719 13.03125 30.902344 13.164062 30.90625 C 13.308594 30.90625 13.367188 31.054688 13.488281 31.148438 C 13.605469 31.242188 13.726562 31.300781 13.820312 31.367188 Z M 16.507812 29.464844 C 16.457031 29.515625 16.371094 29.535156 16.328125 29.59375 C 16.589844 30.265625 16.84375 30.941406 17.0625 31.652344 C 17.441406 31.546875 17.714844 31.335938 17.988281 31.125 C 17.503906 30.5625 17.035156 29.984375 16.507812 29.464844 Z M 14.890625 31.804688 C 15.179688 31.863281 15.496094 31.894531 15.839844 31.894531 C 15.710938 31.257812 15.6875 30.515625 15.53125 29.902344 C 15.339844 30.558594 15.105469 31.175781 14.890625 31.804688 Z M 14.761719 21.839844 C 14.980469 21.796875 15.191406 21.988281 15.03125 22.199219 C 14.957031 22.296875 14.6875 22.359375 14.527344 22.394531 C 14.347656 22.433594 14.015625 22.484375 14 22.316406 C 13.992188 22.195312 14.230469 22.097656 14.335938 22.046875 C 14.492188 21.96875 14.625 21.867188 14.761719 21.839844 Z M 20.597656 23.152344 C 19.464844 23.050781 18.316406 23.003906 17.203125 22.832031 C 17.042969 22.804688 16.832031 22.792969 16.832031 22.675781 C 16.828125 22.554688 17.089844 22.5625 17.140625 22.5625 C 18.113281 22.5 19.472656 22.335938 20.417969 22.382812 C 19.605469 22.207031 18.582031 22.164062 17.589844 22.226562 C 17.167969 22.253906 16.636719 22.265625 16.40625 22.433594 C 16.347656 22.472656 16.265625 22.589844 16.265625 22.664062 C 16.261719 22.730469 16.339844 22.796875 16.40625 22.855469 C 16.449219 22.898438 16.582031 22.957031 16.585938 23.023438 C 16.597656 23.242188 16.246094 23.101562 16.199219 23.074219 C 16.085938 23 15.914062 22.878906 15.890625 22.742188 C 15.859375 22.542969 16.007812 22.269531 16.125 22.164062 C 16.355469 21.949219 16.8125 21.851562 17.242188 21.777344 C 17.457031 21.738281 17.675781 21.707031 17.898438 21.6875 C 18.871094 21.59375 20.777344 21.699219 21.535156 22.175781 C 21.765625 22.320312 22.039062 22.480469 21.972656 22.78125 C 21.796875 23.570312 19.355469 23.753906 19.390625 23.433594 C 19.394531 23.378906 20.445312 23.179688 20.597656 23.152344 Z M 24.121094 21.273438 C 24.246094 21.152344 24.453125 21.140625 24.636719 21.109375 C 25.191406 21.003906 25.816406 20.941406 26.304688 20.773438 C 25.503906 20.785156 24.554688 20.75 23.683594 20.746094 C 23.496094 20.746094 22.9375 20.773438 22.925781 20.621094 C 22.914062 20.476562 23.195312 20.480469 23.347656 20.464844 C 24.542969 20.351562 25.929688 20.3125 27.179688 20.3125 C 27.144531 20.125 26.84375 19.996094 26.601562 19.9375 C 25.871094 19.765625 24.875 19.796875 23.941406 19.898438 C 23.332031 19.96875 22.703125 20.066406 22.203125 20.296875 C 22.054688 20.367188 21.824219 20.476562 21.820312 20.621094 C 21.808594 20.902344 22.230469 20.914062 22.28125 21.121094 C 22.183594 21.210938 22.003906 21.132812 21.871094 21.082031 C 21.625 20.984375 21.351562 20.835938 21.421875 20.476562 C 21.449219 20.332031 21.554688 20.203125 21.652344 20.117188 C 21.972656 19.835938 22.515625 19.660156 23.015625 19.539062 C 23.578125 19.40625 24.140625 19.363281 24.75 19.332031 C 25.726562 19.289062 26.96875 19.390625 27.59375 19.757812 C 27.886719 19.929688 28.167969 20.355469 27.863281 20.722656 C 27.355469 21.332031 24.128906 21.929688 24.121094 21.273438 Z M 28.15625 18.007812 C 27.898438 18.269531 28.285156 18.5 28.503906 18.613281 C 28.734375 18.734375 28.9375 18.789062 29.148438 18.84375 C 30.582031 19.214844 32.570312 18.996094 33.738281 18.613281 C 33.304688 18.636719 29.558594 18.664062 29.390625 18.523438 C 29.675781 18.09375 33.195312 18.25 33.878906 17.957031 C 33.960938 17.921875 34.128906 17.765625 34.109375 17.714844 C 32.050781 17.691406 29.957031 17.726562 28.15625 18.007812 Z M 28.15625 18.007812 " fill-opacity="1" fill-rule="evenodd"/></g><g clip-path="url(#6f41d6a072)"><path fill="#c4d8ff" d="M 36.742188 49.273438 L 37.402344 51.296875 C 37.457031 51.207031 38.046875 50.308594 38.09375 50.21875 C 39.246094 50.175781 40.625 50.253906 41.847656 50.203125 C 41.996094 50.199219 42.300781 50.191406 42.578125 50.191406 C 42.800781 50.191406 43.117188 50.152344 43.253906 50.191406 C 43.371094 50.226562 43.617188 50.648438 43.683594 50.746094 C 43.832031 50.953125 43.953125 51.121094 44.070312 51.324219 C 44.070312 51.324219 44.949219 51.789062 48.101562 51.359375 C 48.070312 51.359375 48.039062 51.355469 48.011719 51.347656 C 48.109375 51.128906 48.316406 50.980469 48.453125 50.785156 C 48.59375 50.585938 48.707031 50.371094 48.855469 50.167969 C 49.230469 50.164062 49.535156 50.097656 49.875 50.0625 C 49.878906 50.050781 49.882812 50.039062 49.886719 50.027344 L 49.886719 48.921875 C 49.886719 42.890625 49.886719 36.839844 49.886719 30.804688 C 49.886719 25.078125 49.859375 19.316406 49.859375 13.523438 C 49.859375 13.476562 49.859375 13.429688 49.859375 13.382812 C 49.859375 12.960938 49.859375 12.558594 49.859375 12.183594 C 49.789062 12.136719 49.699219 12.089844 49.628906 12.058594 C 49.195312 11.855469 48.832031 11.648438 48.453125 11.464844 C 45.101562 9.820312 41.003906 8.011719 37.835938 6.207031 C 37.710938 6.136719 37.574219 6 37.421875 6.050781 C 37.277344 6.101562 37.296875 6.371094 37.292969 6.644531 C 37.28125 7.347656 37.292969 8.019531 37.292969 8.664062 C 37.292969 20.394531 37.320312 32.125 37.320312 43.851562 C 37.320312 45.660156 37.363281 47.476562 37.320312 49.277344 C 37.128906 49.277344 36.933594 49.273438 36.742188 49.273438 Z M 47.824219 41.589844 C 47.917969 33.425781 47.871094 25.4375 47.824219 17.261719 C 47.820312 16.367188 47.820312 15.339844 47.839844 14.449219 C 47.859375 13.527344 48.015625 13.261719 47.152344 12.761719 C 45.808594 11.992188 44.140625 11.195312 42.722656 10.589844 C 41.835938 10.210938 38.925781 8.644531 38.453125 8.597656 C 38.324219 8.824219 43.242188 11.320312 43.296875 11.347656 C 44.601562 12.027344 45.910156 12.707031 47.109375 13.433594 C 47.128906 14.660156 47.179688 15.902344 47.179688 17.148438 C 47.179688 25.257812 47.167969 33.484375 47.566406 41.589844 C 47.59375 42.191406 47.570312 42.796875 47.710938 43.378906 C 47.820312 42.800781 47.816406 42.191406 47.824219 41.589844 Z M 39.339844 23.511719 C 39.773438 23.875 40.257812 24.25 40.832031 24.449219 C 41.730469 24.761719 42.832031 24.714844 43.625 24.386719 C 44.355469 24.085938 44.949219 23.5625 45.386719 22.933594 C 46.464844 21.386719 46.390625 18.992188 45.789062 17.210938 C 44.636719 13.78125 41.351562 11.519531 39.253906 14.175781 C 39.636719 14.082031 40.839844 13.03125 42.964844 14.757812 C 43.453125 15.152344 43.859375 15.613281 44.15625 16.082031 C 43.613281 16.613281 43.0625 17.1875 42.566406 17.777344 C 42.464844 17.898438 42.082031 18.382812 42.480469 18.421875 C 42.722656 18.445312 42.921875 18.078125 43.007812 17.972656 C 43.472656 17.414062 43.84375 16.828125 44.269531 16.285156 C 44.773438 17.105469 45.085938 18.117188 45.214844 19.269531 C 45.347656 20.460938 45.066406 21.617188 44.601562 22.484375 C 44.132812 23.351562 43.394531 24.078125 42.121094 24.105469 C 41.433594 24.117188 40.902344 23.914062 40.402344 23.730469 C 40.011719 23.589844 39.710938 23.390625 39.414062 23.179688 C 39.320312 23.113281 39.199219 22.988281 39.054688 23.0625 C 38.996094 23.273438 39.214844 23.40625 39.339844 23.511719 Z M 41.261719 15.207031 C 41.136719 15.84375 41.007812 16.484375 40.960938 17.210938 C 40.945312 17.46875 40.933594 17.734375 41.191406 17.738281 C 41.460938 17.742188 41.449219 17.476562 41.433594 17.25 C 41.386719 16.5625 41.367188 15.804688 41.289062 15.179688 C 41.289062 15.171875 41.289062 15.164062 41.273438 15.167969 C 41.257812 15.171875 41.261719 15.1875 41.261719 15.207031 Z M 44.457031 18.960938 C 44.34375 19 42.964844 19.644531 42.878906 19.730469 C 42.75 19.871094 42.824219 20.164062 43.023438 20.207031 C 43.222656 20.25 44.515625 19.179688 44.585938 18.988281 C 44.550781 18.933594 44.496094 18.949219 44.457031 18.960938 Z M 43.023438 21.378906 C 42.949219 21.371094 42.851562 21.460938 42.835938 21.492188 C 42.710938 21.828125 43.632812 21.929688 43.828125 21.761719 C 43.726562 21.589844 43.285156 21.402344 43.023438 21.378906 Z M 40.960938 25.941406 C 40.734375 25.988281 40.46875 25.980469 40.488281 26.1875 C 40.511719 26.460938 40.875 26.277344 41.003906 26.265625 C 41.769531 26.171875 42.445312 26.378906 42.921875 26.636719 C 43.871094 27.148438 44.492188 27.992188 44.902344 28.976562 C 45.859375 31.296875 44.683594 35.644531 41.304688 35.40625 C 40.808594 35.371094 40.355469 35.210938 40 35.03125 C 39.878906 34.972656 39.695312 34.878906 39.613281 35.007812 C 39.46875 35.238281 40.160156 35.503906 40.359375 35.585938 C 40.703125 35.726562 41.097656 35.835938 41.492188 35.867188 C 42.425781 35.949219 43.210938 35.6875 43.796875 35.367188 C 45.105469 34.648438 45.824219 33.539062 46.074219 32.203125 C 46.226562 31.414062 46.160156 30.570312 46.019531 29.839844 C 45.726562 28.347656 44.96875 27.292969 43.871094 26.558594 C 43.367188 26.226562 42.527344 25.867188 41.691406 25.890625 C 41.445312 25.898438 41.15625 25.90625 40.960938 25.941406 Z M 42.679688 28 C 42.574219 28.140625 42.425781 28.300781 42.320312 28.460938 C 42.21875 28.621094 42.140625 28.792969 42.050781 29.003906 C 41.96875 29.191406 41.8125 29.511719 42.019531 29.554688 C 42.234375 29.601562 42.351562 29.292969 42.4375 29.144531 C 42.628906 28.804688 42.851562 28.480469 43.039062 28.117188 C 43.082031 28.03125 43.359375 27.515625 43.082031 27.550781 C 42.910156 27.570312 42.773438 27.875 42.679688 28 Z M 44.039062 30.390625 C 43.867188 30.433594 43.664062 30.527344 43.425781 30.621094 C 43.285156 30.675781 42.878906 30.78125 42.894531 30.945312 C 42.910156 31.085938 43.152344 31.046875 43.28125 30.996094 C 43.394531 30.953125 43.546875 30.859375 43.640625 30.816406 C 43.90625 30.6875 44.183594 30.628906 44.269531 30.378906 C 44.214844 30.367188 44.121094 30.371094 44.039062 30.390625 Z M 43.640625 32.859375 C 43.484375 32.804688 43.328125 32.710938 43.210938 32.679688 C 43.042969 32.636719 42.898438 32.722656 42.910156 32.847656 C 42.925781 33.039062 43.445312 33.128906 43.726562 33.140625 C 43.839844 33.148438 43.96875 33.148438 44.011719 33.078125 C 43.988281 32.96875 43.808594 32.917969 43.640625 32.859375 Z M 39.585938 46.296875 C 39.980469 46.621094 40.449219 46.90625 41.019531 47.054688 C 41.867188 47.273438 42.863281 47.191406 43.566406 46.886719 C 45.792969 45.921875 46.699219 43.332031 46.277344 41.253906 C 46.125 40.503906 45.804688 39.835938 45.429688 39.277344 C 45.054688 38.714844 44.554688 38.210938 43.96875 37.847656 C 43.382812 37.488281 42.613281 37.183594 41.589844 37.246094 C 41.300781 37.261719 41.011719 37.324219 40.703125 37.410156 C 40.496094 37.46875 40.066406 37.578125 40.042969 37.746094 C 40.027344 37.875 40.117188 37.96875 40.230469 37.976562 C 40.351562 37.988281 40.492188 37.875 40.558594 37.847656 C 41.105469 37.640625 42.105469 37.570312 42.664062 37.808594 L 42.351562 38.683594 C 42.277344 38.890625 42.210938 39.097656 42.136719 39.300781 C 42.023438 39.605469 41.886719 39.921875 41.804688 40.214844 C 41.777344 40.3125 41.726562 40.46875 41.835938 40.550781 C 41.988281 40.535156 42.023438 40.359375 42.078125 40.253906 C 42.140625 40.132812 42.210938 40.007812 42.265625 39.878906 C 42.398438 39.5625 43.015625 38.214844 43.066406 37.960938 C 43.789062 38.253906 44.5 38.859375 44.730469 39.460938 C 44.144531 39.890625 43.476562 40.433594 42.921875 40.882812 C 42.742188 41.03125 42.484375 41.164062 42.4375 41.382812 C 42.558594 41.433594 42.691406 41.335938 42.78125 41.28125 C 43.496094 40.851562 44.132812 40.308594 44.886719 39.933594 C 45.761719 41.484375 45.4375 43.921875 44.386719 45.382812 C 44.085938 45.800781 43.613281 46.300781 43.140625 46.527344 C 42.554688 46.804688 41.667969 46.855469 40.976562 46.667969 C 40.476562 46.535156 40.042969 46.328125 39.683594 46.089844 C 39.574219 46.015625 39.460938 45.84375 39.285156 45.910156 C 39.265625 46.105469 39.464844 46.195312 39.585938 46.296875 Z M 43.742188 43.121094 C 43.605469 43.066406 43.460938 43 43.308594 42.953125 C 43.113281 42.894531 42.644531 42.757812 42.636719 43.003906 C 42.632812 43.144531 42.851562 43.214844 42.964844 43.261719 C 43.292969 43.390625 43.566406 43.464844 43.914062 43.542969 C 44.070312 43.582031 44.25 43.671875 44.398438 43.597656 C 44.421875 43.304688 44.027344 43.234375 43.742188 43.121094 Z M 43.050781 44.882812 C 42.945312 44.792969 42.785156 44.550781 42.609375 44.574219 C 42.546875 44.582031 42.488281 44.644531 42.492188 44.703125 C 42.503906 44.800781 42.664062 44.917969 42.78125 45.011719 C 42.964844 45.160156 43.164062 45.285156 43.425781 45.253906 C 43.386719 45.054688 43.207031 45.011719 43.050781 44.882812 Z M 44.199219 50.203125 C 44.320312 50.363281 44.425781 50.539062 44.585938 50.667969 C 45.375 50.523438 46.40625 50.675781 47.25 50.589844 C 47.320312 50.46875 47.386719 50.34375 47.421875 50.191406 C 46.351562 50.199219 45.246094 50.175781 44.199219 50.203125 Z M 44.199219 50.203125 " fill-opacity="1" fill-rule="evenodd"/></g><path fill="#c4d8ff" d="M 34.027344 33.859375 C 34.027344 33.859375 29.921875 32.875 29.683594 32.847656 C 29.445312 32.820312 29.738281 33.203125 29.738281 33.203125 L 29.867188 33.640625 L 33.964844 34.296875 Z M 34.027344 33.859375 " fill-opacity="1" fill-rule="evenodd"/><path fill="#c4d8ff" d="M 34.792969 35.917969 C 34.792969 35.917969 29.917969 34.816406 29.632812 34.785156 C 29.351562 34.75 29.699219 35.140625 29.699219 35.140625 L 29.851562 35.582031 L 34.722656 36.355469 Z M 34.804688 34.992188 C 34.804688 34.992188 29.929688 33.890625 29.648438 33.859375 C 29.363281 33.824219 29.710938 34.214844 29.710938 34.214844 L 29.863281 34.65625 L 34.796875 35.632812 Z M 34.804688 34.992188 " fill-opacity="1" fill-rule="evenodd"/><path fill="#c4d8ff" d="M 46.59375 48.578125 C 46.59375 48.578125 46.425781 45.171875 46.566406 45.117188 C 46.707031 45.066406 47.015625 47.675781 46.59375 48.578125 Z M 46.59375 48.578125 " fill-opacity="1" fill-rule="evenodd"/><g clip-path="url(#91a44a32e6)"><path fill="#c4d8ff" d="M 10.949219 49.164062 L 38.953125 49.164062 L 38.953125 49.820312 L 10.949219 49.820312 Z M 10.949219 49.164062 " fill-opacity="1" fill-rule="evenodd"/></g><g fill="#000000" fill-opacity="1"><g transform="translate(23.769725, 35.475001)"><g><path d="M 0.53125 0.046875 C 0.414062 0.046875 0.328125 0.015625 0.265625 -0.046875 C 0.210938 -0.117188 0.1875 -0.203125 0.1875 -0.296875 C 0.1875 -0.398438 0.210938 -0.484375 0.265625 -0.546875 C 0.328125 -0.617188 0.410156 -0.65625 0.515625 -0.65625 C 0.628906 -0.65625 0.71875 -0.625 0.78125 -0.5625 C 0.84375 -0.507812 0.875 -0.425781 0.875 -0.3125 C 0.875 -0.207031 0.84375 -0.117188 0.78125 -0.046875 C 0.726562 0.015625 0.644531 0.046875 0.53125 0.046875 Z M 0.53125 0.046875 "/></g></g></g></svg>