<svg xmlns="http://www.w3.org/2000/svg" xmlns:xlink="http://www.w3.org/1999/xlink" width="80" zoomAndPan="magnify" viewBox="0 0 60 60" height="80" preserveAspectRatio="xMidYMid meet" version="1.0"><defs><g/><clipPath id="55be1fdc72"><path d="M 0.34375 17.5 L 59.59375 17.5 L 59.59375 52 L 0.34375 52 Z M 0.34375 17.5 " clip-rule="nonzero"/></clipPath></defs><g clip-path="url(#55be1fdc72)"><path fill="#c4d8ff" d="M 6.324219 17.5 C 3.160156 17.5 0.585938 20.074219 0.585938 23.238281 L 0.585938 33.484375 C 0.585938 36.648438 3.160156 39.222656 6.324219 39.222656 L 29.316406 39.222656 C 29.703125 39.222656 30.019531 38.910156 30.019531 38.523438 C 30.019531 38.136719 29.703125 37.820312 29.316406 37.820312 L 6.324219 37.820312 C 3.933594 37.820312 1.988281 35.875 1.988281 33.484375 L 1.988281 23.238281 C 1.988281 20.847656 3.933594 18.902344 6.324219 18.902344 L 49.640625 18.902344 C 50.027344 18.902344 50.339844 18.585938 50.339844 18.199219 C 50.339844 17.8125 50.027344 17.5 49.640625 17.5 Z M 42.550781 23.816406 C 42.484375 23.824219 42.417969 23.839844 42.351562 23.867188 C 42.097656 23.980469 41.929688 24.230469 41.929688 24.511719 L 41.929688 46.621094 C 41.929688 46.902344 42.097656 47.15625 42.355469 47.265625 C 42.609375 47.375 42.910156 47.320312 43.113281 47.128906 L 47.882812 42.59375 L 51.769531 51.589844 C 51.84375 51.761719 51.984375 51.898438 52.160156 51.964844 C 52.242188 51.996094 52.328125 52.011719 52.414062 52.011719 C 52.511719 52.011719 52.609375 51.992188 52.703125 51.949219 L 55.652344 50.609375 C 56.003906 50.449219 56.160156 50.035156 56 49.683594 L 51.984375 40.800781 L 58.773438 40.21875 C 59.046875 40.195312 59.285156 40.007812 59.375 39.746094 C 59.464844 39.484375 59.394531 39.195312 59.191406 39.003906 L 43.109375 24 C 42.957031 23.855469 42.75 23.792969 42.550781 23.816406 Z M 31.480469 23.894531 L 28.417969 31.691406 L 29.585938 31.691406 L 32.65625 23.894531 Z M 35.660156 23.894531 L 32.597656 31.691406 L 33.765625 31.691406 L 36.835938 23.894531 Z M 8.296875 24.5 L 8.296875 30.9375 L 9.417969 30.9375 L 9.417969 28.617188 C 9.417969 27.9375 9.878906 27.378906 10.539062 27.378906 C 11.136719 27.378906 11.570312 27.726562 11.570312 28.554688 L 11.570312 30.9375 L 12.691406 30.9375 L 12.691406 28.542969 C 12.691406 27.210938 12.121094 26.339844 10.832031 26.339844 C 10.320312 26.339844 9.824219 26.496094 9.417969 27.019531 L 9.417969 24.5 Z M 15.21875 25.125 L 14.09375 25.246094 L 14.09375 26.414062 L 13.25 26.414062 L 13.25 27.378906 L 14.09375 27.378906 L 14.09375 29.335938 C 14.09375 30.46875 14.738281 31.027344 15.722656 30.992188 C 16.0625 30.984375 16.332031 30.925781 16.652344 30.800781 L 16.339844 29.84375 C 16.171875 29.925781 15.972656 29.980469 15.796875 29.980469 C 15.449219 29.980469 15.207031 29.769531 15.207031 29.335938 L 15.207031 27.378906 L 16.46875 27.378906 L 16.46875 26.414062 L 15.21875 26.414062 Z M 18.886719 25.125 L 17.761719 25.246094 L 17.761719 26.414062 L 16.917969 26.414062 L 16.917969 27.378906 L 17.761719 27.378906 L 17.761719 29.335938 C 17.761719 30.46875 18.40625 31.027344 19.390625 30.992188 C 19.730469 30.984375 20 30.925781 20.320312 30.800781 L 20.007812 29.84375 C 19.839844 29.925781 19.640625 29.980469 19.464844 29.980469 C 19.117188 29.980469 18.875 29.769531 18.875 29.335938 L 18.875 27.378906 L 20.136719 27.378906 L 20.136719 26.414062 L 18.886719 26.414062 Z M 23.566406 26.300781 C 23.046875 26.300781 22.441406 26.523438 22.09375 27.027344 L 22.019531 26.402344 L 20.972656 26.402344 L 20.972656 32.828125 L 22.09375 32.828125 L 22.09375 30.402344 C 22.414062 30.898438 23.125 31.046875 23.601562 31.046875 C 25.054688 31.046875 25.890625 29.996094 25.890625 28.671875 C 25.890625 27.339844 24.960938 26.300781 23.566406 26.300781 Z M 43.574219 26.347656 L 57.082031 38.957031 L 50.878906 39.492188 C 50.652344 39.511719 50.449219 39.636719 50.335938 39.832031 C 50.222656 40.03125 50.207031 40.269531 50.300781 40.476562 L 54.433594 49.621094 L 52.773438 50.378906 L 48.769531 41.117188 C 48.675781 40.90625 48.492188 40.753906 48.265625 40.707031 C 48.21875 40.699219 48.171875 40.695312 48.125 40.695312 C 47.949219 40.695312 47.773438 40.761719 47.640625 40.886719 L 43.332031 44.988281 L 43.332031 27.527344 L 45.015625 31.304688 C 45.074219 31.433594 45.199219 31.511719 45.335938 31.511719 C 45.382812 31.511719 45.429688 31.503906 45.476562 31.480469 C 45.65625 31.402344 45.734375 31.195312 45.65625 31.019531 Z M 27.414062 27.042969 C 27.089844 27.042969 26.761719 27.257812 26.761719 27.691406 C 26.761719 28.546875 28.066406 28.546875 28.066406 27.691406 C 28.066406 27.257812 27.742188 27.042969 27.414062 27.042969 Z M 23.480469 27.386719 C 24.289062 27.386719 24.769531 27.964844 24.769531 28.671875 C 24.769531 29.382812 24.246094 29.960938 23.480469 29.960938 C 22.71875 29.960938 22.195312 29.382812 22.195312 28.671875 C 22.195312 27.964844 22.671875 27.386719 23.480469 27.386719 Z M 27.414062 29.707031 C 27.089844 29.707031 26.761719 29.925781 26.761719 30.355469 C 26.761719 31.210938 28.066406 31.210938 28.066406 30.355469 C 28.066406 29.925781 27.742188 29.707031 27.414062 29.707031 Z M 45.734375 32.007812 C 45.6875 32.007812 45.644531 32.015625 45.597656 32.035156 C 45.421875 32.113281 45.335938 32.320312 45.414062 32.496094 L 45.550781 32.816406 C 45.609375 32.949219 45.738281 33.027344 45.875 33.027344 C 45.921875 33.027344 45.96875 33.019531 46.011719 33 C 46.191406 32.921875 46.269531 32.71875 46.195312 32.539062 L 46.058594 32.21875 C 46 32.085938 45.871094 32.007812 45.734375 32.007812 Z M 45.734375 32.007812 " fill-opacity="1" fill-rule="nonzero"/></g><g fill="#c4d8ff" fill-opacity="1"><g transform="translate(29.469725, 31.125001)"><g><path d="M 0.53125 0.046875 C 0.414062 0.046875 0.328125 0.015625 0.265625 -0.046875 C 0.210938 -0.117188 0.1875 -0.203125 0.1875 -0.296875 C 0.1875 -0.398438 0.210938 -0.484375 0.265625 -0.546875 C 0.328125 -0.617188 0.410156 -0.65625 0.515625 -0.65625 C 0.628906 -0.65625 0.71875 -0.625 0.78125 -0.5625 C 0.84375 -0.507812 0.875 -0.425781 0.875 -0.3125 C 0.875 -0.207031 0.84375 -0.117188 0.78125 -0.046875 C 0.726562 0.015625 0.644531 0.046875 0.53125 0.046875 Z M 0.53125 0.046875 "/></g></g></g></svg>