<svg xmlns="http://www.w3.org/2000/svg" xmlns:xlink="http://www.w3.org/1999/xlink" width="80" zoomAndPan="magnify" viewBox="0 0 60 60" height="80" preserveAspectRatio="xMidYMid meet" version="1.0"><defs><clipPath id="6efdf8cd4f"><path d="M 9.726562 28.335938 L 53.226562 28.335938 L 53.226562 52 L 9.726562 52 Z M 9.726562 28.335938 " clip-rule="nonzero"/></clipPath><clipPath id="7328db3938"><path d="M 29 11 L 58 11 L 58 31 L 29 31 Z M 29 11 " clip-rule="nonzero"/></clipPath><clipPath id="911d0f45df"><path d="M 34.320312 6 L 60.179688 16.070312 L 52.285156 36.339844 L 26.429688 26.269531 Z M 34.320312 6 " clip-rule="nonzero"/></clipPath><clipPath id="cfc19d6ec9"><path d="M 34.320312 6 L 60.179688 16.070312 L 52.285156 36.339844 L 26.429688 26.269531 Z M 34.320312 6 " clip-rule="nonzero"/></clipPath><clipPath id="d646d6c4e3"><path d="M 0 12 L 30 12 L 30 37 L 0 37 Z M 0 12 " clip-rule="nonzero"/></clipPath><clipPath id="18a6d84c40"><path d="M -2.769531 15.492188 L 28.441406 11.25 L 31.472656 33.546875 L 0.257812 37.789062 Z M -2.769531 15.492188 " clip-rule="nonzero"/></clipPath><clipPath id="e5c0c63b56"><path d="M -2.769531 15.492188 L 28.441406 11.25 L 31.472656 33.546875 L 0.257812 37.789062 Z M -2.769531 15.492188 " clip-rule="nonzero"/></clipPath><clipPath id="2f606de5f7"><path d="M 12.246094 28 L 27 28 L 27 37 L 12.246094 37 Z M 12.246094 28 " clip-rule="nonzero"/></clipPath><clipPath id="0cdbd08043"><path d="M 33 30 L 50.496094 30 L 50.496094 36 L 33 36 Z M 33 30 " clip-rule="nonzero"/></clipPath><clipPath id="3cf576a97b"><path d="M 12.246094 31 L 50.496094 31 L 50.496094 41 L 12.246094 41 Z M 12.246094 31 " clip-rule="nonzero"/></clipPath><clipPath id="ae87f2c5d1"><path d="M 46 33 L 50.496094 33 L 50.496094 38 L 46 38 Z M 46 33 " clip-rule="nonzero"/></clipPath><clipPath id="8a1d28c200"><path d="M 12.246094 34 L 41 34 L 41 43 L 12.246094 43 Z M 12.246094 34 " clip-rule="nonzero"/></clipPath></defs><g clip-path="url(#6efdf8cd4f)"><path fill="#c4d8ff" d="M 36 45.71875 L 36 48.71875 L 42.621094 48.71875 C 43.078125 48.71875 43.453125 49.09375 43.453125 49.550781 L 43.453125 51.109375 C 43.453125 51.566406 43.078125 51.941406 42.621094 51.941406 L 20.464844 51.941406 C 20.003906 51.941406 19.632812 51.566406 19.632812 51.109375 L 19.632812 49.550781 C 19.632812 49.09375 20.003906 48.71875 20.464844 48.71875 L 27.085938 48.71875 L 27.085938 45.71875 L 12.433594 45.71875 C 11.714844 45.71875 11.03125 45.433594 10.519531 44.925781 C 10.011719 44.417969 9.726562 43.730469 9.726562 43.011719 L 9.726562 21.328125 C 9.726562 20.609375 10.011719 19.925781 10.519531 19.417969 C 11.03125 18.90625 11.714844 18.621094 12.433594 18.621094 L 50.785156 18.621094 C 51.503906 18.621094 52.191406 18.90625 52.699219 19.417969 C 53.207031 19.925781 53.492188 20.609375 53.492188 21.328125 L 53.492188 43.011719 C 53.492188 43.730469 53.207031 44.417969 52.699219 44.925781 C 52.191406 45.433594 51.503906 45.71875 50.785156 45.71875 Z M 50.785156 21.054688 L 12.433594 21.054688 C 12.359375 21.054688 12.292969 21.085938 12.242188 21.136719 C 12.191406 21.1875 12.160156 21.257812 12.160156 21.328125 L 12.160156 43.011719 C 12.160156 43.085938 12.191406 43.152344 12.242188 43.203125 C 12.292969 43.257812 12.359375 43.285156 12.433594 43.285156 L 50.785156 43.285156 C 50.859375 43.285156 50.929688 43.257812 50.980469 43.203125 C 51.03125 43.152344 51.0625 43.085938 51.0625 43.011719 L 51.0625 21.328125 C 51.0625 21.257812 51.03125 21.1875 50.980469 21.136719 C 50.929688 21.085938 50.859375 21.054688 50.785156 21.054688 Z M 50.785156 21.054688 " fill-opacity="1" fill-rule="evenodd"/></g><g clip-path="url(#7328db3938)"><g clip-path="url(#911d0f45df)"><g clip-path="url(#cfc19d6ec9)"><path fill="#c4d8ff" d="M 49.445312 11.914062 L 49.890625 14.089844 C 50.722656 14.246094 51.503906 14.554688 52.207031 14.976562 L 54.027344 13.683594 C 54.617188 14.125 55.15625 14.640625 55.625 15.210938 L 54.402344 17.058594 C 54.867188 17.738281 55.210938 18.503906 55.414062 19.324219 L 57.617188 19.699219 C 57.671875 20.070312 57.703125 20.445312 57.710938 20.828125 C 57.71875 21.195312 57.703125 21.554688 57.671875 21.910156 L 55.496094 22.351562 C 55.339844 23.183594 55.03125 23.96875 54.609375 24.667969 L 55.902344 26.488281 C 55.460938 27.082031 54.945312 27.621094 54.375 28.089844 L 52.527344 26.867188 C 51.847656 27.328125 51.082031 27.675781 50.257812 27.878906 L 49.886719 30.082031 C 49.515625 30.132812 49.140625 30.164062 48.757812 30.175781 C 48.390625 30.183594 48.03125 30.167969 47.675781 30.132812 L 47.234375 27.960938 C 46.398438 27.800781 45.617188 27.496094 44.914062 27.070312 L 44.484375 27.378906 L 44.417969 27.089844 C 44.925781 26.671875 45.378906 26.195312 45.769531 25.667969 L 48.167969 26.132812 L 48.417969 25.664062 C 48.570312 25.378906 48.707031 25.085938 48.835938 24.785156 C 50.824219 24.640625 52.375 22.960938 52.332031 20.945312 C 52.289062 19.066406 50.882812 17.539062 49.082031 17.289062 C 48.84375 16.601562 48.535156 15.941406 48.164062 15.316406 L 47.898438 14.867188 L 45.5 15.417969 C 45.351562 15.242188 45.199219 15.070312 45.039062 14.90625 C 45.601562 14.582031 46.214844 14.332031 46.863281 14.171875 L 47.234375 11.96875 C 47.605469 11.914062 47.980469 11.882812 48.367188 11.875 C 48.730469 11.867188 49.089844 11.882812 49.445312 11.914062 Z M 43.738281 12.054688 L 43.285156 14.386719 C 44.042969 14.886719 44.691406 15.511719 45.214844 16.21875 L 47.546875 15.683594 C 47.953125 16.367188 48.277344 17.09375 48.507812 17.851562 L 46.539062 19.183594 C 46.714844 20.046875 46.746094 20.945312 46.609375 21.84375 L 48.636719 23.117188 C 48.539062 23.503906 48.417969 23.890625 48.265625 24.273438 C 48.125 24.640625 47.964844 24.992188 47.785156 25.328125 L 45.449219 24.875 C 44.949219 25.636719 44.328125 26.285156 43.617188 26.804688 L 44.152344 29.140625 C 43.472656 29.546875 42.742188 29.867188 41.984375 30.101562 L 40.652344 28.128906 C 39.789062 28.308594 38.890625 28.335938 37.992188 28.199219 L 36.71875 30.230469 C 36.332031 30.128906 35.945312 30.007812 35.5625 29.859375 C 35.195312 29.714844 34.847656 29.554688 34.507812 29.375 L 34.960938 27.039062 C 34.203125 26.542969 33.550781 25.917969 33.03125 25.210938 L 30.695312 25.742188 C 30.292969 25.0625 29.96875 24.332031 29.738281 23.574219 L 31.707031 22.242188 C 31.527344 21.382812 31.5 20.480469 31.636719 19.582031 L 29.609375 18.3125 C 29.707031 17.921875 29.828125 17.535156 29.980469 17.152344 C 30.121094 16.789062 30.28125 16.4375 30.460938 16.101562 L 32.796875 16.550781 C 33.296875 15.792969 33.917969 15.144531 34.628906 14.621094 L 34.09375 12.289062 C 34.773438 11.882812 35.503906 11.558594 36.261719 11.328125 L 37.59375 13.296875 C 38.453125 13.121094 39.355469 13.089844 40.253906 13.226562 L 41.523438 11.199219 C 41.914062 11.296875 42.300781 11.421875 42.683594 11.570312 C 43.046875 11.710938 43.398438 11.875 43.738281 12.054688 Z M 40.589844 16.945312 C 38.511719 16.136719 36.164062 17.167969 35.355469 19.246094 C 34.546875 21.328125 35.574219 23.671875 37.65625 24.480469 C 39.734375 25.292969 42.078125 24.261719 42.890625 22.179688 C 43.699219 20.101562 42.671875 17.757812 40.589844 16.945312 Z M 40.589844 16.945312 " fill-opacity="1" fill-rule="evenodd"/></g></g></g><g clip-path="url(#d646d6c4e3)"><g clip-path="url(#18a6d84c40)"><g clip-path="url(#e5c0c63b56)"><path fill="#c4d8ff" d="M 26.207031 17.8125 C 25.636719 18.25 24 17.007812 24 17.007812 C 24 17.007812 23.21875 15.109375 23.789062 14.671875 L 26.628906 12.484375 C 25.183594 11.796875 23.417969 11.921875 22.070312 12.964844 C 20.753906 13.976562 20.171875 15.59375 20.414062 17.125 C 15.902344 21.328125 11.011719 25.09375 5.796875 28.382812 C 4.375 27.753906 2.664062 27.90625 1.347656 28.917969 C -0.00390625 29.960938 -0.574219 31.636719 -0.28125 33.203125 L 2.558594 31.015625 C 3.132812 30.578125 4.765625 31.820312 4.765625 31.820312 C 4.765625 31.820312 5.550781 33.71875 4.980469 34.15625 L 2.140625 36.34375 C 3.582031 37.03125 5.347656 36.90625 6.699219 35.867188 C 7.984375 34.875 8.566406 33.3125 8.363281 31.808594 C 12.898438 27.582031 17.824219 23.792969 23.070312 20.484375 C 24.472656 21.0625 26.128906 20.898438 27.417969 19.910156 C 28.769531 18.871094 29.34375 17.195312 29.046875 15.625 Z M 26.207031 17.8125 " fill-opacity="1" fill-rule="nonzero"/></g></g></g><g clip-path="url(#2f606de5f7)"><path fill="#99dde7" d="M 16.84375 35.128906 C 20.332031 37.773438 22.515625 35.566406 26.160156 33.765625 C 23.140625 32.886719 20.839844 30.65625 18.59375 29.058594 C 16.710938 27.714844 14.238281 28.355469 12.085938 29.460938 L 12.085938 34.230469 C 12.085938 34.230469 14.796875 33.578125 16.84375 35.128906 " fill-opacity="1" fill-rule="nonzero"/></g><g clip-path="url(#0cdbd08043)"><path fill="#99dde7" d="M 35.09375 32.285156 C 34.625 32.542969 34.167969 32.773438 33.722656 32.972656 C 36.011719 34.484375 36.683594 37.546875 40.714844 34.300781 C 45.863281 30.152344 51.085938 32.652344 51.085938 32.652344 L 51.085938 32.285156 C 51.085938 32.285156 43.34375 27.722656 35.09375 32.285156 " fill-opacity="1" fill-rule="nonzero"/></g><g clip-path="url(#3cf576a97b)"><path fill="#6ecfe2" d="M 40.714844 34.300781 C 36.683594 37.546875 36.011719 34.484375 33.722656 32.972656 C 32.804688 32.363281 31.621094 32.003906 29.851562 32.414062 C 28.445312 32.738281 27.238281 33.234375 26.160156 33.765625 C 22.515625 35.566406 20.332031 37.773438 16.84375 35.128906 C 14.796875 33.578125 12.085938 34.230469 12.085938 34.230469 L 12.085938 34.921875 C 12.085938 34.921875 19.242188 39.863281 27.511719 36.308594 C 35.011719 33.082031 36.09375 37.691406 40.304688 40.34375 C 41.847656 39.355469 43.222656 38.160156 44.578125 37.195312 C 45.300781 36.679688 46.109375 36.457031 46.953125 36.4375 C 47.742188 34.996094 48.878906 33.808594 51.085938 33.816406 L 51.085938 32.652344 C 51.085938 32.652344 45.863281 30.152344 40.714844 34.300781 " fill-opacity="1" fill-rule="nonzero"/></g><g clip-path="url(#ae87f2c5d1)"><path fill="#40c0d8" d="M 46.953125 36.4375 C 48.308594 36.410156 49.757812 36.917969 51.085938 37.597656 L 51.085938 33.816406 C 48.878906 33.808594 47.742188 34.996094 46.953125 36.4375 " fill-opacity="1" fill-rule="nonzero"/></g><g clip-path="url(#8a1d28c200)"><path fill="#40c0d8" d="M 28.078125 40.421875 C 33.558594 43.453125 37.257812 42.300781 40.304688 40.34375 C 36.09375 37.691406 35.011719 33.082031 27.511719 36.308594 C 19.242188 39.863281 12.085938 34.921875 12.085938 34.921875 L 12.085938 40.421875 C 12.085938 40.421875 19.828125 35.859375 28.078125 40.421875 " fill-opacity="1" fill-rule="nonzero"/></g><path fill="#99dde7" d="M 46.953125 36.4375 C 46.109375 36.457031 45.300781 36.679688 44.578125 37.195312 C 43.222656 38.160156 41.847656 39.351562 40.304688 40.34375 C 40.738281 40.613281 41.199219 40.863281 41.707031 41.085938 C 45.246094 42.621094 45.5 39.097656 46.953125 36.4375 " fill-opacity="1" fill-rule="nonzero"/></svg>