<svg xmlns="http://www.w3.org/2000/svg" xmlns:xlink="http://www.w3.org/1999/xlink" width="500" zoomAndPan="magnify" viewBox="0 0 375 374.999991" height="500" preserveAspectRatio="xMidYMid meet" version="1.0"><defs><clipPath id="d02e4e45df"><path d="M 105 296 L 277 296 L 277 339.59375 L 105 339.59375 Z M 105 296 " clip-rule="nonzero"/></clipPath><clipPath id="ccb3d7a99e"><path d="M 44 160 L 183 160 L 183 227 L 44 227 Z M 44 160 " clip-rule="nonzero"/></clipPath><clipPath id="b3bfac6882"><path d="M 22.710938 193.386719 L 156.351562 59.742188 L 289.996094 193.386719 L 156.351562 327.03125 Z M 22.710938 193.386719 " clip-rule="nonzero"/></clipPath><clipPath id="46843c408a"><path d="M 289.699219 193.386719 L 156.054688 327.03125 L 22.410156 193.386719 L 156.054688 59.742188 Z M 289.699219 193.386719 " clip-rule="nonzero"/></clipPath><clipPath id="c9fbeb547b"><path d="M 82 98 L 251 98 L 251 288 L 82 288 Z M 82 98 " clip-rule="nonzero"/></clipPath><clipPath id="918edf7508"><path d="M 22.710938 193.386719 L 156.351562 59.742188 L 289.996094 193.386719 L 156.351562 327.03125 Z M 22.710938 193.386719 " clip-rule="nonzero"/></clipPath><clipPath id="ac33bb3810"><path d="M 289.699219 193.386719 L 156.054688 327.03125 L 22.410156 193.386719 L 156.054688 59.742188 Z M 289.699219 193.386719 " clip-rule="nonzero"/></clipPath></defs><g clip-path="url(#d02e4e45df)"><path fill="#acb0b6" d="M 205.664062 311.402344 L 204.898438 296.203125 C 195.675781 299.996094 186.460938 303.277344 177.34375 306.058594 L 177.078125 311.402344 C 141.84375 313.546875 113.730469 323.480469 106.171875 336.253906 C 105.441406 337.492188 106.34375 339.058594 107.78125 339.058594 L 135.800781 339.058594 C 137.078125 339.058594 138.316406 338.597656 139.265625 337.742188 C 148.386719 329.53125 168.289062 323.839844 191.371094 323.839844 C 214.457031 323.839844 234.359375 329.53125 243.476562 337.742188 C 244.429688 338.597656 245.667969 339.058594 246.945312 339.058594 L 274.957031 339.058594 C 276.398438 339.058594 277.304688 337.492188 276.570312 336.253906 C 269.011719 323.480469 240.894531 313.546875 205.664062 311.402344 " fill-opacity="1" fill-rule="nonzero"/></g><path fill="#acb0b6" d="M 41.671875 262.101562 C 26.777344 234.941406 34.15625 199.367188 57.800781 165.742188 L 57.800781 137.410156 C 21.0625 178.117188 6.585938 223.949219 24.859375 257.273438 C 35.753906 277.136719 56.664062 289.578125 83.230469 294.460938 C 64.699219 288.316406 50.117188 277.503906 41.671875 262.101562 " fill-opacity="1" fill-rule="nonzero"/><path fill="#abd3ef" d="M 333.167969 88.191406 C 305.65625 38.027344 214.335938 35.207031 129.199219 81.902344 C 118.234375 87.914062 107.90625 94.460938 98.289062 101.398438 L 129.5625 101.398438 C 132.144531 99.875 134.765625 98.375 137.433594 96.914062 C 216.554688 53.519531 301.964844 57.125 328.203125 104.964844 C 336.652344 120.363281 337.929688 138.476562 333.144531 157.398438 C 343.3125 132.375 344.0625 108.058594 333.167969 88.191406 " fill-opacity="1" fill-rule="nonzero"/><path fill="#acb0b6" d="M 77.308594 287.269531 L 172.042969 287.269531 C 190.960938 281.636719 210.269531 273.628906 229.257812 263.214844 C 270.03125 240.855469 302.246094 211.285156 322.367188 180.628906 L 322.367188 120.910156 C 322.367188 111.839844 315.234375 104.4375 306.269531 103.996094 L 306.269531 103.976562 L 77.308594 103.976562 C 67.957031 103.976562 60.375 111.558594 60.375 120.910156 L 60.375 270.335938 C 60.375 279.6875 67.957031 287.269531 77.308594 287.269531 " fill-opacity="1" fill-rule="nonzero"/><path fill="#549cd1" d="M 359.273438 89.902344 C 347.007812 67.535156 323.476562 53.535156 293.578125 48.046875 C 314.429688 54.957031 330.84375 67.128906 340.351562 84.46875 C 369.878906 138.308594 321.625 221.546875 232.570312 270.386719 C 143.515625 319.230469 47.382812 315.171875 17.855469 261.328125 C 8.347656 243.992188 6.90625 223.609375 12.289062 202.308594 C 0.847656 230.472656 0 257.84375 12.265625 280.203125 C 43.230469 336.667969 146.011719 339.835938 241.832031 287.285156 L 241.863281 287.269531 L 305.433594 287.269531 C 314.785156 287.269531 322.367188 279.6875 322.367188 270.335938 L 322.367188 224.617188 C 363.589844 178.851562 379.816406 127.351562 359.273438 89.902344 " fill-opacity="1" fill-rule="nonzero"/><g clip-path="url(#ccb3d7a99e)"><g clip-path="url(#b3bfac6882)"><g clip-path="url(#46843c408a)"><path fill="#ffffff" d="M 125.734375 205.433594 C 130.550781 217.5625 142.363281 226.15625 156.191406 226.152344 C 167.214844 226.152344 176.933594 220.683594 182.847656 212.324219 L 155.839844 212.328125 L 145.925781 193.414062 L 155.769531 174.503906 L 182.773438 174.503906 C 176.828125 166.144531 167.089844 160.671875 156.066406 160.671875 C 142.242188 160.671875 130.457031 169.265625 125.6875 181.390625 L 56.851562 181.390625 C 50.214844 181.390625 44.847656 186.773438 44.859375 193.414062 C 44.871094 200.050781 50.261719 205.433594 56.898438 205.433594 L 125.734375 205.433594 " fill-opacity="1" fill-rule="nonzero"/></g></g></g><g clip-path="url(#c9fbeb547b)"><g clip-path="url(#918edf7508)"><g clip-path="url(#ac33bb3810)"><path fill="#ffffff" d="M 114.667969 254.109375 C 123.238281 259.976562 132.75 263.855469 142.585938 265.695312 L 146.78125 287.789062 L 165.5625 287.789062 L 169.757812 265.695312 C 179.59375 263.859375 189.105469 259.976562 197.675781 254.109375 L 216.285156 266.78125 L 229.566406 253.5 L 216.890625 234.890625 C 222.761719 226.320312 226.640625 216.808594 228.480469 206.972656 L 250.574219 202.777344 L 250.574219 183.996094 L 228.480469 179.800781 C 226.640625 169.964844 222.761719 160.453125 216.890625 151.882812 L 229.566406 133.273438 L 216.285156 119.992188 L 197.675781 132.664062 C 189.105469 126.796875 179.59375 122.914062 169.757812 121.074219 L 165.5625 98.980469 L 146.78125 98.980469 L 142.585938 121.074219 C 132.75 122.914062 123.238281 126.796875 114.667969 132.664062 L 96.058594 119.992188 L 82.777344 133.273438 L 95.449219 151.882812 C 92.410156 156.320312 89.929688 161.023438 87.960938 165.878906 L 111.761719 165.871094 C 113.84375 162.515625 116.289062 159.328125 119.199219 156.414062 C 139.617188 135.996094 172.722656 135.996094 193.140625 156.414062 C 213.5625 176.835938 213.5625 209.9375 193.140625 230.355469 C 172.722656 250.777344 139.621094 250.777344 119.199219 230.355469 C 116.289062 227.445312 113.835938 224.25 111.753906 220.894531 L 87.96875 220.90625 C 89.933594 225.757812 92.414062 230.453125 95.449219 234.890625 L 82.777344 253.5 L 96.058594 266.78125 L 114.667969 254.109375 " fill-opacity="1" fill-rule="nonzero"/></g></g></g></svg>